<svg width="24" height="24" viewBox="0 0 24 24" fill="none" xmlns="http://www.w3.org/2000/svg">
<g id="Group">
<circle id="Oval" cx="12" cy="9.5" r="1.5" stroke="white" stroke-width="1.5" stroke-linecap="round" stroke-linejoin="round"/>
<path id="Path" fill-rule="evenodd" clip-rule="evenodd" d="M19 21H5C3.89543 21 3 20.1046 3 19V19C3 18.4477 3.44772 18 4 18H20C20.5523 18 21 18.4477 21 19V19C21 20.1046 20.1046 21 19 21Z" stroke="white" stroke-width="1.5" stroke-linecap="round" stroke-linejoin="round"/>
<path id="Path_2" d="M4.5 17.9999C4.64279 13.998 7.99775 10.8667 12 10.9999C16.0022 10.8667 19.3572 13.998 19.5 17.9999" stroke="white" stroke-width="1.5" stroke-linecap="round" stroke-linejoin="round"/>
<path id="Path_3" d="M22 10H21" stroke="white" stroke-width="1.5" stroke-linecap="round" stroke-linejoin="round"/>
<path id="Path_4" d="M3 10H2" stroke="white" stroke-width="1.5" stroke-linecap="round" stroke-linejoin="round"/>
<path id="Path_5" d="M12 2V3" stroke="white" stroke-width="1.5" stroke-linecap="round" stroke-linejoin="round"/>
<path id="Path_6" d="M5.29293 4.29293L6.00004 5.00004" stroke="white" stroke-width="1.5" stroke-linecap="round" stroke-linejoin="round"/>
<path id="Path_7" d="M18.7071 4.29293L18 5.00004" stroke="white" stroke-width="1.5" stroke-linecap="round" stroke-linejoin="round"/>
</g>
</svg>
