<svg width="118" height="149" viewBox="0 0 118 149" fill="none" xmlns="http://www.w3.org/2000/svg">
<g id="logo">
<path id="Vector" d="M59.5299 2.14404C27.8816 2.14404 2.1311 28.0431 2.1311 59.8802V146.856H116.935V59.8802C116.935 28.0491 91.1842 2.15004 59.5359 2.15004L59.5299 2.14404Z" fill="#FFF0D8"/>
<path id="Vector_2" d="M58.997 0C26.4671 0 0 26.6665 0 59.4416V149H118V59.4416C118 26.6665 91.5329 0 58.997 0ZM114.409 145.388H3.58532V121.229H114.415V145.388H114.409ZM3.58532 117.617V59.4416C3.58532 28.6587 28.4444 3.61234 58.997 3.61234C89.5497 3.61234 114.409 28.6587 114.409 59.4416V117.617H3.58532Z" fill="#D14E1D"/>
<path id="Vector_3" d="M89.3472 36.6071H87.4569C82.018 26.0518 71.0509 19.2949 59.222 19.2949C47.393 19.2949 36.426 26.0578 30.987 36.6071H29.1027C20.1032 36.6071 12.7859 44 12.7859 53.0851C12.7859 62.1702 20.1091 69.5571 29.1027 69.5571H33.0734V99.5249H85.3765V70.6073V69.4971L89.3412 69.5571C98.3408 69.5571 105.658 62.1642 105.658 53.0851C105.658 44.006 98.3348 36.6131 89.3412 36.6131L89.3472 36.6071ZM36.4438 96.1284V92.216H82.0061V96.1284H36.4438ZM89.371 66.1607L85.3824 66.1007C85.4002 63.3704 87.6055 61.1621 90.3101 61.1621H91.4633V57.7597H90.3101C85.7628 57.7597 82.0655 61.4681 82.018 66.0527H82.0061V88.8195H60.9101V67.7509L71.8712 60.25L69.981 57.4356L60.9101 63.6404V56.6615L71.8712 49.1606L69.981 46.3463L60.9101 52.551V41.2096H57.5398V52.551L48.4689 46.3463L46.5787 49.1606L57.5398 56.6615V63.6404L48.4689 57.4356L46.5787 60.25L57.5398 67.7509V88.8195H36.4438V66.1427C36.4438 61.5221 32.7227 57.7657 28.1457 57.7657H26.9925V61.1681H28.1457C30.8622 61.1681 33.0794 63.4004 33.0794 66.1487V66.1727H29.1087C21.9697 66.1727 16.1563 60.31 16.1563 53.0971C16.1563 45.8842 21.9637 40.0215 29.1087 40.0215H33.0972L33.5549 39.0554C38.2568 29.1241 48.3322 22.7093 59.2279 22.7093C70.1236 22.7093 80.1991 29.1241 84.9009 39.0554L85.3586 40.0215H89.3472C96.4862 40.0215 102.3 45.8902 102.3 53.0971C102.3 60.304 96.4921 66.1727 89.371 66.1727V66.1607Z" fill="#D14E1D"/>
<g id="Group">
<path id="Vector_4" d="M20.9625 140.494C20.4078 140.178 19.9664 139.745 19.6443 139.201C19.3223 138.656 19.1553 138.059 19.1553 137.416V133.43L21.368 132.886V137.416C21.368 137.802 21.5052 138.13 21.7796 138.405C22.0539 138.68 22.3879 138.814 22.7756 138.814H24.4516C24.8333 138.814 25.1613 138.68 25.4357 138.405C25.71 138.13 25.8472 137.802 25.8472 137.416V130.141L28.06 129.597V137.416C28.06 138.065 27.8989 138.656 27.5709 139.201C27.2429 139.745 26.8075 140.172 26.2647 140.494C25.722 140.816 25.1136 140.974 24.4516 140.974H22.7756C22.1136 140.974 21.5112 140.816 20.9565 140.494H20.9625ZM21.8929 129.281H23.7895V131.025H21.8929V129.281Z" fill="#D14E1D"/>
<path id="Vector_5" d="M82.6215 131.218C82.2934 130.673 81.858 130.24 81.3033 129.924C80.7487 129.608 80.1463 129.444 79.4962 129.444H75.8937V133.003C75.8937 133.377 75.7506 133.699 75.4703 133.974C75.1899 134.249 74.8559 134.384 74.4683 134.384H33.3147C32.927 134.384 32.587 134.249 32.3067 133.98C32.0264 133.711 31.8892 133.389 31.8892 133.003V125.429L29.6943 125.974V133.003C29.6943 133.641 29.8554 134.232 30.1774 134.77C30.5055 135.315 30.9409 135.748 31.4956 136.064C32.0502 136.386 32.6586 136.544 33.3147 136.544H74.4683C74.9573 136.544 75.4166 136.444 75.852 136.257C76.2814 136.064 76.6572 135.794 76.9852 135.455C77.2953 135.794 77.6711 136.064 78.1065 136.257C78.5419 136.444 79.0071 136.544 79.4962 136.544C80.1463 136.544 80.7487 136.386 81.3033 136.064C81.858 135.748 82.2934 135.315 82.6215 134.77C82.9435 134.232 83.1046 133.641 83.1046 133.003C83.1046 132.365 82.9435 131.762 82.6215 131.218ZM80.4982 133.974C80.2238 134.249 79.8898 134.384 79.4962 134.384C79.1025 134.384 78.7745 134.249 78.5001 133.98C78.2258 133.711 78.0886 133.389 78.0886 133.003V131.604H79.4962C79.8898 131.604 80.2238 131.739 80.4982 132.014C80.7725 132.289 80.9097 132.616 80.9097 133.003C80.9097 133.389 80.7725 133.699 80.4982 133.974Z" fill="#D14E1D"/>
<path id="Vector_6" d="M83.4207 138.715L84.9654 137.708V130.153L87.1662 129.608V138.861L84.6493 140.506L83.4266 138.709L83.4207 138.715Z" fill="#D14E1D"/>
<path id="Vector_7" d="M89.7678 138.943L92.93 136.478L91.9613 136.56C91.4502 136.603 90.9199 136.49 90.3768 136.225C89.8337 135.96 89.3699 135.57 88.98 135.063C88.596 134.555 88.3741 133.981 88.3195 133.334C88.265 132.686 88.3768 132.095 88.6575 131.519C88.9381 130.943 89.3356 130.475 89.8618 130.113C90.388 129.751 90.9745 129.537 91.6163 129.482L95.2297 129.175L95.8822 136.92L91.1251 140.631L89.7678 138.943ZM90.9967 134.063C91.2932 134.314 91.6373 134.42 92.0236 134.387L93.444 134.267L93.2106 131.497L91.7902 131.617C91.4098 131.65 91.0943 131.811 90.8376 132.103C90.5808 132.395 90.4717 132.734 90.5036 133.113C90.5356 133.492 90.7002 133.813 90.9967 134.063Z" fill="#D14E1D"/>
<path id="Vector_8" d="M97.3296 125.974L99.5423 125.429V136.544H97.3296V125.974Z" fill="#D14E1D"/>
</g>
<g id="Group_2">
<g id="Group_3">
<path id="Vector_9" d="M31.9743 108.299C31.9743 107.022 30.9177 105.985 29.6177 105.985H26.9761V112.043H27.9674V110.614H29.6177C29.7779 110.614 29.9442 110.597 30.1282 110.55L31.2145 112.066L32.004 111.553L31.0186 110.159C31.6241 109.722 31.9802 109.034 31.9802 108.299H31.9743ZM30.983 108.299C30.983 109.04 30.3716 109.64 29.6177 109.64H27.9674V106.958H29.6177C30.3716 106.958 30.983 107.559 30.983 108.299Z" fill="#D14E1D"/>
<path id="Vector_10" d="M42.1725 105.734C40.6707 105.734 39.4419 106.935 39.4419 108.416V112.072H40.4332V110.62H43.9059V112.072H44.8972V108.416C44.8972 106.941 43.6744 105.734 42.1666 105.734H42.1725ZM43.9118 108.416V109.652H40.4392V108.416C40.4392 107.477 41.2168 106.708 42.1785 106.708C43.1401 106.708 43.9178 107.472 43.9178 108.416H43.9118Z" fill="#D14E1D"/>
<path id="Vector_11" d="M35.7675 108.264L34.0104 106.031L33.9925 105.996H32.9834V112.043H33.9747V107.944L35.7378 110.194L37.5364 108.049V112.043H38.5278V105.996H37.6373L35.7675 108.264Z" fill="#D14E1D"/>
<path id="Vector_12" d="M51.0588 105.815V111.99L50.1683 111.967L50.1505 111.943L46.8025 107.617V111.984H45.8171V105.938H46.7551L46.7729 105.961L50.0674 110.229V106.06L51.0588 105.815Z" fill="#D14E1D"/>
<path id="Vector_13" d="M22.9095 105.763C21.1464 105.763 19.7158 107.174 19.7158 108.9C19.7158 110.626 21.1524 112.037 22.9095 112.037C24.6666 112.037 26.1031 110.626 26.1031 108.9C26.1031 107.174 24.6666 105.763 22.9095 105.763ZM25.0821 109.279C24.9278 110.136 24.2629 110.818 23.414 111.011C23.414 111.011 23.4081 111.011 23.4022 111.011C23.3309 111.028 23.2597 111.04 23.1885 111.046C23.1766 111.046 23.1707 111.046 23.1588 111.046C23.0816 111.052 22.9985 111.057 22.9154 111.057C22.8323 111.057 22.7551 111.057 22.672 111.046C22.6602 111.046 22.6542 111.046 22.6423 111.046C22.5711 111.034 22.4999 111.022 22.4286 111.011C22.4286 111.011 22.4227 111.011 22.4168 111.011C21.562 110.818 20.9031 110.136 20.7428 109.285C20.7428 109.285 20.7428 109.232 20.7309 109.209C20.7309 109.174 20.719 109.139 20.719 109.098C20.719 109.04 20.7131 108.976 20.7072 108.918C20.7072 108.912 20.7072 108.906 20.7072 108.9C20.7072 107.705 21.6926 106.737 22.9095 106.737C22.9095 106.737 22.9392 106.737 22.951 106.737C24.1501 106.76 25.1177 107.716 25.1177 108.9C25.1177 108.906 25.1177 108.912 25.1177 108.923C25.1177 108.982 25.1177 109.04 25.1058 109.104C25.1058 109.139 25.094 109.174 25.094 109.215C25.094 109.238 25.094 109.262 25.0821 109.285V109.279Z" fill="#D14E1D"/>
</g>
<g id="Group_4">
<path id="Vector_14" d="M54.3357 105.664H56.7339C57.47 105.664 58.0517 105.833 58.4673 106.165C58.8887 106.504 59.0965 106.97 59.0965 107.565C59.0965 108.008 58.9896 108.381 58.7759 108.69C58.5622 108.999 58.2476 109.226 57.844 109.372L59.3399 112.031V112.095H58.1764L56.8111 109.646H55.4339V112.095H54.3357V105.664ZM56.8229 108.795C57.191 108.795 57.4819 108.69 57.6956 108.486C57.9093 108.282 58.0161 108.008 58.0161 107.658C58.0161 107.297 57.9033 107.011 57.6777 106.807C57.4522 106.603 57.1316 106.498 56.722 106.498H55.4398V108.795H56.8229Z" fill="#D14E1D"/>
<path id="Vector_15" d="M60.034 109.67C60.034 109.203 60.1231 108.783 60.3071 108.416C60.4911 108.049 60.7464 107.751 61.0847 107.541C61.4231 107.332 61.8208 107.227 62.2779 107.227C62.913 107.227 63.4176 107.431 63.7916 107.833C64.1656 108.241 64.3555 108.789 64.3555 109.483V109.862H61.0847V109.996C61.0966 110.259 61.1678 110.492 61.2984 110.702C61.429 110.912 61.6012 111.081 61.8089 111.203C62.0226 111.326 62.2541 111.384 62.5035 111.384C63.0258 111.384 63.4414 111.197 63.75 110.83L64.2012 111.366C64.0172 111.623 63.7679 111.821 63.4473 111.967C63.1327 112.113 62.7825 112.183 62.4085 112.183C61.9573 112.183 61.5537 112.083 61.1916 111.891C60.8295 111.693 60.5445 111.419 60.3368 111.057C60.129 110.696 60.0281 110.282 60.0281 109.821V109.675L60.034 109.67ZM63.3404 109.273V109.18C63.3404 108.853 63.2395 108.585 63.0436 108.369C62.8477 108.154 62.5925 108.049 62.2779 108.049C61.9633 108.049 61.708 108.159 61.4884 108.375C61.2687 108.591 61.1381 108.894 61.0847 109.273H63.3404Z" fill="#D14E1D"/>
<path id="Vector_16" d="M65.9053 111.996C65.5966 111.874 65.3473 111.699 65.1633 111.471C64.9793 111.244 64.8843 110.981 64.8843 110.684H65.8281C65.8341 110.941 65.935 111.133 66.1368 111.267C66.3386 111.401 66.5998 111.465 66.9263 111.465C67.2113 111.465 67.4368 111.401 67.6149 111.279C67.793 111.156 67.8761 111.005 67.8761 110.818C67.8761 110.62 67.7752 110.457 67.5793 110.328C67.3834 110.2 67.0925 110.101 66.7126 110.019C66.1427 109.891 65.7213 109.716 65.4542 109.495C65.187 109.273 65.0505 108.976 65.0505 108.614C65.0505 108.346 65.1277 108.107 65.2879 107.897C65.4482 107.687 65.6619 107.518 65.9409 107.396C66.2199 107.273 66.5464 107.215 66.9144 107.215C67.514 107.215 67.9889 107.349 68.3569 107.617C68.719 107.885 68.9031 108.247 68.9031 108.702H67.8702C67.8702 108.463 67.7811 108.276 67.609 108.136C67.4309 107.996 67.1994 107.92 66.9026 107.92C66.6414 107.92 66.4336 107.979 66.2674 108.101C66.1071 108.224 66.024 108.381 66.024 108.573C66.024 108.737 66.0953 108.871 66.2318 108.97C66.3683 109.075 66.5345 109.151 66.7245 109.209C66.9144 109.267 67.1816 109.331 67.5259 109.413C67.977 109.518 68.3154 109.675 68.5528 109.897C68.7843 110.119 68.9031 110.41 68.9031 110.772C68.9031 111.046 68.8199 111.285 68.6537 111.495C68.4875 111.704 68.256 111.874 67.9533 111.99C67.6505 112.107 67.3062 112.165 66.9204 112.165C66.5583 112.165 66.2199 112.101 65.9112 111.978L65.9053 111.996Z" fill="#D14E1D"/>
<path id="Vector_17" d="M72.0668 108.054H71.1526V110.684C71.1526 110.929 71.1942 111.098 71.2773 111.203C71.3604 111.308 71.5088 111.355 71.7225 111.355C71.8293 111.355 71.9658 111.343 72.138 111.32L72.1558 112.083C71.9421 112.148 71.6987 112.183 71.4375 112.183C70.9745 112.183 70.6362 112.072 70.4224 111.844C70.2087 111.623 70.096 111.279 70.09 110.812V108.054H69.3777V107.308H70.09V106.072H71.1526V107.308H72.0668V108.054Z" fill="#D14E1D"/>
<path id="Vector_18" d="M73.4082 112.002C73.1708 111.879 72.9808 111.716 72.8384 111.5C72.7018 111.29 72.6306 111.051 72.6306 110.795C72.6306 110.305 72.8265 109.926 73.2183 109.658C73.6101 109.39 74.1621 109.261 74.8745 109.261H75.6224V108.824C75.6224 108.544 75.5453 108.334 75.385 108.189C75.2306 108.043 74.9991 107.973 74.7083 107.973C74.4174 107.973 74.1978 108.043 74.0256 108.183C73.8535 108.323 73.7644 108.503 73.7644 108.725L72.7493 108.713C72.7493 108.428 72.8384 108.171 73.0105 107.944C73.1827 107.716 73.4201 107.536 73.7288 107.407C74.0315 107.279 74.3758 107.215 74.7558 107.215C75.3434 107.215 75.8065 107.355 76.1508 107.64C76.495 107.926 76.6731 108.317 76.6791 108.812V110.987C76.6791 111.454 76.7384 111.798 76.8631 112.019V112.083H75.7946C75.7352 111.926 75.6877 111.728 75.664 111.495C75.3256 111.949 74.8448 112.177 74.2215 112.177C73.9188 112.177 73.6516 112.118 73.4082 111.996V112.002ZM73.895 111.226C74.0434 111.355 74.2393 111.419 74.4708 111.419C74.7498 111.419 74.9873 111.36 75.1832 111.244C75.3791 111.127 75.5275 110.964 75.6284 110.76V109.862H74.9338C74.5717 109.862 74.269 109.932 74.0315 110.078C73.7941 110.218 73.6694 110.439 73.6694 110.725C73.6694 110.929 73.7466 111.098 73.895 111.226Z" fill="#D14E1D"/>
<path id="Vector_19" d="M80.8345 111.5C80.4961 111.955 80.0153 112.183 79.392 112.183C78.8577 112.183 78.4541 112.031 78.181 111.722C77.9079 111.413 77.7773 110.976 77.7773 110.393V107.308H78.828V110.393C78.828 110.707 78.8993 110.946 79.0477 111.11C79.1961 111.273 79.4157 111.355 79.7007 111.355C79.9559 111.355 80.1696 111.302 80.3536 111.203C80.5377 111.098 80.6801 110.946 80.781 110.748V107.308H81.8436V112.089H80.8463L80.8285 111.5H80.8345Z" fill="#D14E1D"/>
<path id="Vector_20" d="M82.9479 107.314H83.9333L83.963 108.066C84.242 107.506 84.6635 107.221 85.2274 107.221C85.3758 107.221 85.5064 107.238 85.6132 107.273L85.5836 108.235C85.4945 108.206 85.3639 108.189 85.1858 108.189C84.889 108.189 84.6397 108.264 84.426 108.422C84.2182 108.573 84.0698 108.801 83.9808 109.087V112.089H82.936V107.308L82.9479 107.314Z" fill="#D14E1D"/>
<path id="Vector_21" d="M86.753 112.002C86.5155 111.879 86.3256 111.716 86.1831 111.5C86.0466 111.29 85.9753 111.051 85.9753 110.795C85.9753 110.305 86.1712 109.926 86.563 109.658C86.9548 109.39 87.5069 109.261 88.2192 109.261H88.9672V108.824C88.9672 108.544 88.89 108.334 88.7297 108.189C88.5754 108.043 88.3439 107.973 88.053 107.973C87.7621 107.973 87.5425 108.043 87.3703 108.183C87.1982 108.323 87.1091 108.503 87.1091 108.725L86.0941 108.713C86.0941 108.428 86.1831 108.171 86.3553 107.944C86.5274 107.716 86.7649 107.536 87.0735 107.407C87.3763 107.279 87.7206 107.215 88.1005 107.215C88.6882 107.215 89.1512 107.355 89.4955 107.64C89.8398 107.926 90.0179 108.317 90.0238 108.812V110.987C90.0238 111.454 90.0832 111.798 90.2078 112.019V112.083H89.1393C89.0799 111.926 89.0325 111.728 89.0087 111.495C88.6704 111.949 88.1895 112.177 87.5662 112.177C87.2635 112.177 86.9964 112.118 86.753 111.996V112.002ZM87.2397 111.226C87.3881 111.355 87.584 111.419 87.8156 111.419C88.0946 111.419 88.332 111.36 88.5279 111.244C88.7238 111.127 88.8722 110.964 88.9731 110.76V109.862H88.2786C87.9165 109.862 87.6137 109.932 87.3763 110.078C87.1388 110.218 87.0142 110.439 87.0142 110.725C87.0142 110.929 87.0913 111.098 87.2397 111.226Z" fill="#D14E1D"/>
<path id="Vector_22" d="M91.1221 112.095V107.314H92.1075L92.1431 108.066C92.3152 107.792 92.5289 107.588 92.7783 107.442C93.0276 107.297 93.3066 107.227 93.6153 107.227C94.1376 107.227 94.5294 107.378 94.7906 107.676C95.0518 107.973 95.1883 108.428 95.1943 109.04V112.095H94.1317V109.046C94.1317 108.702 94.0605 108.445 93.918 108.282C93.7755 108.119 93.55 108.037 93.2353 108.037C92.9979 108.037 92.7842 108.107 92.6002 108.253C92.4162 108.393 92.2737 108.591 92.1728 108.836V112.089H91.1221V112.095Z" fill="#D14E1D"/>
<path id="Vector_23" d="M98.5182 108.054H97.604V110.684C97.604 110.929 97.6456 111.098 97.7287 111.203C97.8118 111.308 97.9602 111.355 98.1739 111.355C98.2807 111.355 98.4173 111.343 98.5894 111.32L98.6072 112.083C98.3935 112.148 98.1501 112.183 97.8889 112.183C97.4259 112.183 97.0876 112.072 96.8739 111.844C96.6602 111.623 96.5474 111.279 96.5414 110.812V108.054H95.8291V107.308H96.5414V106.072H97.604V107.308H98.5182V108.054Z" fill="#D14E1D"/>
</g>
</g>
</g>
</svg>
