<svg width="57" height="56" viewBox="0 0 57 56" fill="none" xmlns="http://www.w3.org/2000/svg">
<rect x="4.33325" y="4" width="48" height="48" rx="24" fill="#FDEAD7"/>
<path d="M29.3332 18L20.4267 28.6879C20.0779 29.1064 19.9035 29.3157 19.9008 29.4925C19.8985 29.6461 19.967 29.7923 20.0865 29.8889C20.224 30 20.4964 30 21.0413 30H28.3332L27.3332 38L36.2398 27.3121C36.5886 26.8936 36.763 26.6843 36.7657 26.5075C36.768 26.3539 36.6995 26.2077 36.58 26.1111C36.4425 26 36.1701 26 35.6252 26H28.3332L29.3332 18Z" stroke="#F38744" stroke-width="2" stroke-linecap="round" stroke-linejoin="round"/>
<rect x="4.33325" y="4" width="48" height="48" rx="24" stroke="#FEF6EE" stroke-width="8"/>
</svg>
