<svg width="56" height="56" viewBox="0 0 56 56" fill="none" xmlns="http://www.w3.org/2000/svg">
<rect x="4" y="4" width="48" height="48" rx="24" fill="#FDEAD7"/>
<path fill-rule="evenodd" clip-rule="evenodd" d="M34 37H22C20.8954 37 20 36.1046 20 35V25C20 23.8954 20.8954 23 22 23H34C35.1046 23 36 23.8954 36 25V35C36 36.1046 35.1046 37 34 37Z" stroke="#F38744" stroke-width="2" stroke-linecap="round" stroke-linejoin="round"/>
<path d="M31.5 23V22C31.5 20.067 29.933 18.5 28 18.5V18.5C26.067 18.5 24.5 20.067 24.5 22V22V23" stroke="#F38744" stroke-width="2" stroke-linecap="round" stroke-linejoin="round"/>
<path d="M30 29L27.5 31.5L26 30" stroke="#F38744" stroke-width="2" stroke-linecap="round" stroke-linejoin="round"/>
<rect x="4" y="4" width="48" height="48" rx="24" stroke="#FEF6EE" stroke-width="8"/>
</svg>
