<svg width="24" height="24" viewBox="0 0 24 24" fill="none" xmlns="http://www.w3.org/2000/svg">
<circle cx="12" cy="12" r="9" stroke="#46B4A1" stroke-width="1.5" stroke-linecap="round" stroke-linejoin="round"/>
<path fill-rule="evenodd" clip-rule="evenodd" d="M8.66425 12.9343C7.98618 12.8175 7.41523 12.3614 7.15145 11.7259C6.88767 11.0904 6.96785 10.3641 7.36389 9.80144C7.95829 8.97658 9.06137 8.7014 9.97356 9.15044C10.1725 8.1893 11.0191 7.5 12.0006 7.5C12.9821 7.5 13.8287 8.1893 14.0276 9.15044C14.9372 8.70268 16.037 8.97473 16.6329 9.79487C17.0793 10.4304 17.1221 11.2655 16.743 11.9433C16.4471 12.4674 15.9308 12.8304 15.3375 12.9316L15.3333 15.5014C15.3318 16.0526 14.8845 16.4987 14.3332 16.4987L9.66063 16.4998C9.39486 16.4999 9.13998 16.3943 8.95226 16.2062C8.76453 16.018 8.6594 15.7629 8.66007 15.4972L8.66425 12.9343Z" stroke="#46B4A1" stroke-width="1.5" stroke-linecap="round" stroke-linejoin="round"/>
</svg>
