<svg width="24" height="24" viewBox="0 0 24 24" fill="none" xmlns="http://www.w3.org/2000/svg">
<path fill-rule="evenodd" clip-rule="evenodd" d="M20.5 10.6066C20.5382 7.54459 18.9265 4.69871 16.2809 3.15659C13.6353 1.61447 10.3647 1.61447 7.71913 3.15659C5.07354 4.69871 3.46185 7.54459 3.50001 10.6066C3.50001 14.0731 6.83918 17.7471 9.33136 20.0071C10.863 21.3311 13.1339 21.3315 14.666 20.0081C17.1599 17.7481 20.5 14.0736 20.5 10.6066Z" stroke="#46B4A1" stroke-width="1.5" stroke-linecap="round" stroke-linejoin="round"/>
<path fill-rule="evenodd" clip-rule="evenodd" d="M8.66424 11.4343C7.98617 11.3175 7.41522 10.8615 7.15145 10.226C6.88767 9.59047 6.96785 8.86415 7.36388 8.30149C7.95828 7.47662 9.06136 7.20142 9.97355 7.65044C10.1725 6.6893 11.0191 6 12.0006 6C12.9821 6 13.8287 6.6893 14.0276 7.65044C14.9372 7.20269 16.037 7.47474 16.6329 8.29488C17.0793 8.9304 17.1221 9.76549 16.743 10.4433C16.4471 10.9675 15.9308 11.3304 15.3375 11.4316L15.3333 14.0014C15.3317 14.5526 14.8845 14.9987 14.3332 14.9987L9.66062 14.9999C9.39486 15 9.13998 14.8943 8.95225 14.7062C8.76453 14.5181 8.6594 14.263 8.66006 13.9972L8.66424 11.4343Z" stroke="#46B4A1" stroke-width="1.5" stroke-linecap="round" stroke-linejoin="round"/>
</svg>
