<svg width="24" height="24" viewBox="0 0 24 24" fill="none" xmlns="http://www.w3.org/2000/svg">
<path d="M13 21H5C3.89543 21 3 20.1046 3 19V5C3 3.89543 3.89543 3 5 3H18C19.1046 3 20 3.89543 20 5V13" stroke="#46B4A1" stroke-width="1.5" stroke-linecap="round" stroke-linejoin="round"/>
<path d="M12.0002 15.4988L9.16064 15.5C8.89483 15.5001 8.63993 15.3943 8.4522 15.2061C8.26448 15.018 8.15937 14.7628 8.16008 14.497L8.16426 11.9362C7.48608 11.8191 6.91511 11.3629 6.65136 10.7272C6.3876 10.0916 6.46781 9.36513 6.8639 8.80233C7.45813 7.97723 8.56134 7.70191 9.47357 8.15107C9.67219 7.18964 10.5189 6.5 11.5006 6.5C12.4823 6.5 13.329 7.18964 13.5276 8.15107C14.4372 7.70317 15.5372 7.97535 16.1329 8.79572C16.5793 9.43149 16.6221 10.2668 16.243 10.9448C15.9472 11.4691 15.4309 11.8322 14.8375 11.9334L14.8333 13.0021" stroke="#46B4A1" stroke-width="1.5" stroke-linecap="round" stroke-linejoin="round"/>
<path fill-rule="evenodd" clip-rule="evenodd" d="M20.5129 16.6736V16.6736C20.8248 16.9856 21 17.4086 21 17.8497C21 18.2908 20.8248 18.7138 20.5129 19.0257L18.9192 20.6193C18.6754 20.8631 18.3448 21.0001 18 21.0001C17.6552 21.0001 17.3246 20.8631 17.0808 20.6193L15.4871 19.0257C15.1752 18.7138 15 18.2908 15 17.8497C15 17.4086 15.1752 16.9856 15.4871 16.6736V16.6736C16.1366 16.0242 17.1896 16.0242 17.8391 16.6736L18 16.8345L18.1608 16.6736C18.4727 16.3617 18.8958 16.1865 19.3369 16.1865C19.778 16.1865 20.201 16.3617 20.5129 16.6736Z" stroke="#46B4A1" stroke-width="1.5" stroke-linecap="round" stroke-linejoin="round"/>
</svg>
