<svg width="24" height="24" viewBox="0 0 24 24" fill="none" xmlns="http://www.w3.org/2000/svg">
<path d="M9.68469 9.68482C9.92172 8.66326 10.8522 7.95496 11.8999 7.99844C13.0726 7.93349 14.0779 8.82709 14.1509 9.99928C14.1509 11.5038 12 12.0001 12 13.0005" stroke="#46B4A1" stroke-width="1.5" stroke-linecap="round" stroke-linejoin="round"/>
<path d="M12.1252 15.7523C12.1251 15.8213 12.0691 15.8772 12.0001 15.8772C11.9311 15.8772 11.8751 15.8212 11.8751 15.7522C11.8751 15.6832 11.931 15.6272 12 15.6271C12.0332 15.6271 12.0651 15.6402 12.0886 15.6637C12.1121 15.6872 12.1252 15.7191 12.1252 15.7523" stroke="#46B4A1" stroke-width="1.5" stroke-linecap="round" stroke-linejoin="round"/>
<path fill-rule="evenodd" clip-rule="evenodd" d="M4.6284 17.1605C1.9453 13.3308 2.63481 8.08546 6.21651 5.07926C9.79821 2.07305 15.0836 2.30347 18.3901 5.60997C21.6966 8.91646 21.927 14.2019 18.9208 17.7836C15.9146 21.3653 10.6693 22.0548 6.83959 19.3717L3.99667 20.0034L4.6284 17.1605Z" stroke="#46B4A1" stroke-width="1.5" stroke-linecap="round" stroke-linejoin="round"/>
</svg>
