<svg width="57" height="56" viewBox="0 0 57 56" fill="none" xmlns="http://www.w3.org/2000/svg">
<rect x="4.66666" y="4" width="48" height="48" rx="24" fill="#FDEAD7"/>
<path d="M33.6667 23H37.6667" stroke="#F38744" stroke-width="2" stroke-linecap="round" stroke-linejoin="round"/>
<path d="M35.6667 25V21" stroke="#F38744" stroke-width="2" stroke-linecap="round" stroke-linejoin="round"/>
<path d="M32.6667 35.0002V36.0002C32.6667 36.5522 32.2187 37.0002 31.6667 37.0002H19.6667C19.1147 37.0002 18.6667 36.5522 18.6667 36.0002V35.0002V34.9842C18.6667 31.9582 22.1247 29.9922 25.6667 29.9922C29.2087 29.9922 32.6667 31.9592 32.6667 34.9842" stroke="#F38744" stroke-width="2" stroke-linecap="round" stroke-linejoin="round"/>
<path d="M28.1359 21.0228C29.4996 22.3865 29.4996 24.5975 28.1359 25.9612C26.7722 27.3249 24.5611 27.3249 23.1974 25.9612C21.8337 24.5975 21.8337 22.3865 23.1974 21.0228C24.5611 19.6591 26.7722 19.6591 28.1359 21.0228" stroke="#F38744" stroke-width="2" stroke-linecap="round" stroke-linejoin="round"/>
<rect x="4.66666" y="4" width="48" height="48" rx="24" stroke="#FEF6EE" stroke-width="8"/>
</svg>
