<svg width="24" height="24" viewBox="0 0 24 24" fill="none" xmlns="http://www.w3.org/2000/svg">
<path d="M15.052 4H5.5C4.119 4 3 5.119 3 6.5V6.5C3 7.881 4.119 9 5.5 9H15.052" stroke="#46B4A1" stroke-width="1.5" stroke-linecap="round" stroke-linejoin="round"/>
<path d="M19.9749 4.02513C21.3418 5.39197 21.3418 7.60804 19.9749 8.97488C18.6081 10.3417 16.392 10.3417 15.0252 8.97488C13.6583 7.60804 13.6583 5.39197 15.0252 4.02513C16.392 2.65829 18.6081 2.65829 19.9749 4.02513" stroke="#46B4A1" stroke-width="1.5" stroke-linecap="round" stroke-linejoin="round"/>
<path d="M8.948 20H18.5C19.881 20 21 18.881 21 17.5V17.5C21 16.119 19.881 15 18.5 15H8.948" stroke="#46B4A1" stroke-width="1.5" stroke-linecap="round" stroke-linejoin="round"/>
<path d="M8.97488 15.0251C10.3417 16.392 10.3417 18.608 8.97488 19.9749C7.60804 21.3417 5.39197 21.3417 4.02513 19.9749C2.65829 18.608 2.65829 16.392 4.02513 15.0251C5.39197 13.6583 7.60804 13.6583 8.97488 15.0251" stroke="#46B4A1" stroke-width="1.5" stroke-linecap="round" stroke-linejoin="round"/>
</svg>
