<svg width="21" height="20" viewBox="0 0 21 20" fill="none" xmlns="http://www.w3.org/2000/svg">
<path fill-rule="evenodd" clip-rule="evenodd" d="M15.67 4.80187C14.2983 3.42937 12.4741 2.67271 10.5308 2.67188C6.52498 2.67188 3.26581 5.92937 3.26497 9.93354C3.26331 11.2077 3.59747 12.4602 4.23414 13.5644L3.20331 17.3277L7.05498 16.3177C8.12081 16.8977 9.31414 17.2019 10.5275 17.2019H10.5308C14.535 17.2019 17.7941 13.9435 17.7958 9.93937C17.7966 7.99937 17.0416 6.17521 15.67 4.80187Z" stroke="#FCFCFD" stroke-width="1.5" stroke-linecap="round" stroke-linejoin="round"/>
<path d="M11.4125 11.2999L11.7508 10.9641C12.0616 10.6558 12.5533 10.6166 12.9116 10.8683C13.2583 11.1116 13.5716 11.3299 13.8633 11.5333C14.3266 11.8549 14.3825 12.5149 13.9833 12.9133L13.6841 13.2124" stroke="#FCFCFD" stroke-width="1.5" stroke-linecap="round" stroke-linejoin="round"/>
<path d="M7.28748 6.81534L7.58664 6.51617C7.98498 6.11784 8.64498 6.17367 8.96664 6.63617C9.16914 6.92784 9.38748 7.24117 9.63164 7.58784C9.88331 7.94617 9.84498 8.43784 9.53581 8.74867L9.19998 9.08701" stroke="#FCFCFD" stroke-width="1.5" stroke-linecap="round" stroke-linejoin="round"/>
<path d="M13.6842 13.2111C12.45 14.4395 10.3758 13.3961 8.73834 11.7578" stroke="#FCFCFD" stroke-width="1.5" stroke-linecap="round" stroke-linejoin="round"/>
<path d="M8.73999 11.7603C7.10249 10.122 6.05916 8.04862 7.28749 6.81445" stroke="#FCFCFD" stroke-width="1.5" stroke-linecap="round" stroke-linejoin="round"/>
<path d="M9.20001 9.08789C9.46585 9.50706 9.80668 9.92206 10.1917 10.3071L10.1933 10.3087C10.5783 10.6937 10.9933 11.0346 11.4125 11.3004" stroke="#FCFCFD" stroke-width="1.5" stroke-linecap="round" stroke-linejoin="round"/>
</svg>
