<svg width="194" height="37" viewBox="0 0 194 37" fill="none" xmlns="http://www.w3.org/2000/svg">
<path d="M18.0292 19.278C18.0292 20.3487 17.8385 21.368 17.4572 22.336C17.0759 23.2893 16.5405 24.1327 15.8512 24.866C15.1619 25.5993 14.3332 26.186 13.3652 26.626C12.3972 27.0513 11.3265 27.264 10.1532 27.264C8.97986 27.264 7.9092 27.0513 6.9412 26.626C5.98786 26.2007 5.16653 25.6287 4.4772 24.91C3.78786 24.1767 3.25253 23.3333 2.8712 22.38C2.50453 21.412 2.3212 20.3927 2.3212 19.322C2.3212 18.2513 2.51186 17.2393 2.8932 16.286C3.27453 15.318 3.80986 14.4673 4.4992 13.734C5.18853 13.0007 6.0172 12.4213 6.9852 11.996C7.9532 11.556 9.02386 11.336 10.1972 11.336C11.3705 11.336 12.4339 11.5487 13.3872 11.974C14.3552 12.3993 15.1839 12.9787 15.8732 13.712C16.5625 14.4307 17.0905 15.274 17.4572 16.242C17.8385 17.1953 18.0292 18.2073 18.0292 19.278ZM16.2252 19.322C16.2252 18.442 16.0712 17.6133 15.7632 16.836C15.4699 16.0587 15.0519 15.384 14.5092 14.812C13.9665 14.24 13.3212 13.7853 12.5732 13.448C11.8399 13.1107 11.0332 12.942 10.1532 12.942C9.2732 12.942 8.4592 13.1107 7.7112 13.448C6.97786 13.7707 6.3472 14.218 5.8192 14.79C5.2912 15.362 4.8732 16.0367 4.5652 16.814C4.27186 17.5767 4.1252 18.398 4.1252 19.278C4.1252 20.158 4.27186 20.9867 4.5652 21.764C4.8732 22.5413 5.29853 23.216 5.8412 23.788C6.38386 24.36 7.02186 24.8147 7.7552 25.152C8.5032 25.4893 9.3172 25.658 10.1972 25.658C11.0772 25.658 11.8839 25.4967 12.6172 25.174C13.3652 24.8367 14.0032 24.382 14.5312 23.81C15.0592 23.238 15.4699 22.5707 15.7632 21.808C16.0712 21.0307 16.2252 20.202 16.2252 19.322ZM23.1026 22.468V27H21.4086V15.626H23.1026V18.596C23.3079 18.1267 23.5646 17.694 23.8726 17.298C24.1806 16.902 24.5326 16.5647 24.9286 16.286C25.3246 15.9927 25.7573 15.7727 26.2266 15.626C26.6959 15.4793 27.2019 15.4133 27.7446 15.428V17.254H27.6126C26.9966 17.254 26.4099 17.364 25.8526 17.584C25.3099 17.804 24.8333 18.134 24.4226 18.574C24.0119 19.014 23.6893 19.564 23.4546 20.224C23.2199 20.8693 23.1026 21.6173 23.1026 22.468ZM39.3446 17.65C39.55 17.342 39.7773 17.0487 40.0266 16.77C40.2906 16.4913 40.584 16.2493 40.9066 16.044C41.2293 15.8387 41.5886 15.6773 41.9846 15.56C42.3953 15.4427 42.85 15.384 43.3486 15.384C44.6686 15.384 45.7026 15.7947 46.4506 16.616C47.1986 17.4227 47.5726 18.5373 47.5726 19.96V27H45.8786V20.356C45.8786 19.256 45.6146 18.4127 45.0866 17.826C44.5733 17.2247 43.8546 16.924 42.9306 16.924C42.5053 16.924 42.102 17.0047 41.7206 17.166C41.3393 17.3127 41.002 17.54 40.7086 17.848C40.43 18.1413 40.2026 18.508 40.0266 18.948C39.8653 19.388 39.7846 19.8867 39.7846 20.444V27H38.1126V20.312C38.1126 19.2413 37.8486 18.4127 37.3206 17.826C36.8073 17.2247 36.096 16.924 35.1866 16.924C34.732 16.924 34.314 17.012 33.9326 17.188C33.5513 17.364 33.214 17.6133 32.9206 17.936C32.642 18.2587 32.422 18.64 32.2606 19.08C32.0993 19.5053 32.0186 19.982 32.0186 20.51V27H30.3246V15.626H32.0186V17.54C32.2093 17.2613 32.4146 16.99 32.6346 16.726C32.8693 16.462 33.1333 16.2347 33.4266 16.044C33.72 15.8387 34.05 15.6773 34.4166 15.56C34.7833 15.4427 35.2086 15.384 35.6926 15.384C36.6166 15.384 37.3793 15.604 37.9806 16.044C38.582 16.4693 39.0366 17.0047 39.3446 17.65ZM55.3644 16.968C54.6897 16.968 54.0737 17.0487 53.5164 17.21C52.9737 17.3567 52.4384 17.5547 51.9104 17.804L51.4044 16.418C52.0351 16.1247 52.6731 15.8973 53.3184 15.736C53.9637 15.56 54.7044 15.472 55.5404 15.472C57.0951 15.472 58.2904 15.8607 59.1264 16.638C59.9624 17.4007 60.3804 18.5373 60.3804 20.048V27H58.7524V25.284C58.3564 25.7973 57.8211 26.252 57.1464 26.648C56.4864 27.044 55.6504 27.242 54.6384 27.242C54.1104 27.242 53.5897 27.1687 53.0764 27.022C52.5777 26.8753 52.1231 26.6553 51.7124 26.362C51.3164 26.054 50.9937 25.68 50.7444 25.24C50.5097 24.8 50.3924 24.2793 50.3924 23.678C50.3924 23.0767 50.5097 22.5487 50.7444 22.094C50.9791 21.6247 51.3091 21.236 51.7344 20.928C52.1744 20.62 52.6877 20.3853 53.2744 20.224C53.8757 20.0627 54.5357 19.982 55.2544 19.982C55.9877 19.982 56.6257 20.026 57.1684 20.114C57.7111 20.202 58.2391 20.3193 58.7524 20.466V20.07C58.7524 19.0433 58.4517 18.2733 57.8504 17.76C57.2637 17.232 56.4351 16.968 55.3644 16.968ZM55.4304 21.236C54.3597 21.236 53.5384 21.4487 52.9664 21.874C52.3944 22.2993 52.1084 22.8787 52.1084 23.612C52.1084 23.9787 52.1817 24.3013 52.3284 24.58C52.4897 24.8587 52.7024 25.1007 52.9664 25.306C53.2304 25.4967 53.5311 25.6433 53.8684 25.746C54.2204 25.8487 54.5871 25.9 54.9684 25.9C55.4964 25.9 55.9877 25.8267 56.4424 25.68C56.9117 25.5187 57.3151 25.306 57.6524 25.042C58.0044 24.7633 58.2757 24.4407 58.4664 24.074C58.6717 23.6927 58.7744 23.2747 58.7744 22.82V21.72C58.3491 21.6027 57.8577 21.4927 57.3004 21.39C56.7577 21.2873 56.1344 21.236 55.4304 21.236ZM65.6846 20.488V27H63.9906V15.626H65.6846V17.606C66.066 16.99 66.5646 16.4693 67.1806 16.044C67.7966 15.604 68.596 15.384 69.5786 15.384C70.268 15.384 70.8766 15.494 71.4046 15.714C71.9473 15.934 72.402 16.2493 72.7686 16.66C73.15 17.056 73.436 17.5327 73.6266 18.09C73.832 18.6473 73.9346 19.2633 73.9346 19.938V27H72.2406V20.356C72.2406 19.3 71.9693 18.464 71.4266 17.848C70.884 17.232 70.1066 16.924 69.0946 16.924C68.6106 16.924 68.156 17.012 67.7306 17.188C67.32 17.3493 66.9606 17.5913 66.6526 17.914C66.3446 18.222 66.1026 18.596 65.9266 19.036C65.7653 19.476 65.6846 19.96 65.6846 20.488ZM85.837 22.468V27H84.143V15.626H85.837V18.596C86.0423 18.1267 86.299 17.694 86.607 17.298C86.915 16.902 87.267 16.5647 87.663 16.286C88.059 15.9927 88.4916 15.7727 88.961 15.626C89.4303 15.4793 89.9363 15.4133 90.479 15.428V17.254H90.347C89.731 17.254 89.1443 17.364 88.587 17.584C88.0443 17.804 87.5676 18.134 87.157 18.574C86.7463 19.014 86.4236 19.564 86.189 20.224C85.9543 20.8693 85.837 21.6173 85.837 22.468ZM93.5769 21.94C93.6355 22.556 93.7822 23.106 94.0169 23.59C94.2515 24.0593 94.5522 24.4627 94.9189 24.8C95.2855 25.1227 95.6962 25.372 96.1509 25.548C96.6055 25.7093 97.0822 25.79 97.5809 25.79C98.3729 25.79 99.0475 25.6433 99.6049 25.35C100.177 25.0567 100.698 24.668 101.167 24.184L102.223 25.13C101.651 25.7753 100.998 26.296 100.265 26.692C99.5315 27.0733 98.6222 27.264 97.5369 27.264C96.7595 27.264 96.0262 27.1247 95.3369 26.846C94.6475 26.5527 94.0462 26.1493 93.5329 25.636C93.0195 25.108 92.6089 24.4773 92.3009 23.744C92.0075 23.0107 91.8609 22.204 91.8609 21.324C91.8609 20.5027 91.9929 19.7327 92.2569 19.014C92.5355 18.2807 92.9169 17.65 93.4009 17.122C93.8849 16.5793 94.4569 16.154 95.1169 15.846C95.7915 15.538 96.5249 15.384 97.3169 15.384C98.1529 15.384 98.9009 15.5453 99.5609 15.868C100.221 16.176 100.778 16.6013 101.233 17.144C101.688 17.6867 102.032 18.3247 102.267 19.058C102.502 19.7913 102.619 20.576 102.619 21.412C102.619 21.4853 102.619 21.566 102.619 21.654C102.619 21.742 102.612 21.8373 102.597 21.94H93.5769ZM93.5769 20.686H100.903C100.859 20.1727 100.749 19.6813 100.573 19.212C100.412 18.7427 100.177 18.332 99.8689 17.98C99.5755 17.628 99.2089 17.3493 98.7689 17.144C98.3435 16.924 97.8449 16.814 97.2729 16.814C96.7742 16.814 96.3122 16.9167 95.8869 17.122C95.4615 17.3127 95.0875 17.584 94.7649 17.936C94.4422 18.2733 94.1782 18.6767 93.9729 19.146C93.7675 19.6153 93.6355 20.1287 93.5769 20.686ZM113.394 23.81C113.394 24.3527 113.284 24.8367 113.064 25.262C112.859 25.6727 112.573 26.0247 112.206 26.318C111.854 26.6113 111.429 26.8387 110.93 27C110.446 27.1467 109.918 27.22 109.346 27.22C108.525 27.22 107.696 27.0733 106.86 26.78C106.024 26.472 105.284 26.0613 104.638 25.548L105.496 24.338C106.112 24.8073 106.75 25.1667 107.41 25.416C108.085 25.6653 108.76 25.79 109.434 25.79C110.124 25.79 110.688 25.6287 111.128 25.306C111.568 24.9833 111.788 24.5433 111.788 23.986V23.942C111.788 23.6633 111.708 23.4213 111.546 23.216C111.4 23.0107 111.194 22.8347 110.93 22.688C110.666 22.5267 110.358 22.3873 110.006 22.27C109.669 22.1527 109.317 22.0427 108.95 21.94C108.51 21.808 108.063 21.6687 107.608 21.522C107.168 21.3607 106.765 21.1627 106.398 20.928C106.046 20.6933 105.753 20.4 105.518 20.048C105.298 19.696 105.188 19.256 105.188 18.728V18.684C105.188 18.2 105.284 17.76 105.474 17.364C105.665 16.9533 105.929 16.6087 106.266 16.33C106.618 16.0367 107.029 15.8167 107.498 15.67C107.982 15.5087 108.503 15.428 109.06 15.428C109.764 15.428 110.476 15.5453 111.194 15.78C111.913 16 112.566 16.3007 113.152 16.682L112.382 17.958C111.854 17.6207 111.297 17.3567 110.71 17.166C110.138 16.9607 109.574 16.858 109.016 16.858C108.342 16.858 107.806 17.0193 107.41 17.342C107.014 17.65 106.816 18.0387 106.816 18.508V18.552C106.816 18.816 106.897 19.0507 107.058 19.256C107.22 19.4467 107.432 19.6153 107.696 19.762C107.975 19.9087 108.29 20.0407 108.642 20.158C108.994 20.2753 109.361 20.3927 109.742 20.51C110.182 20.642 110.615 20.7887 111.04 20.95C111.48 21.1113 111.876 21.3167 112.228 21.566C112.58 21.8153 112.859 22.116 113.064 22.468C113.284 22.82 113.394 23.2527 113.394 23.766V23.81ZM118.615 17.122V23.766C118.615 24.47 118.791 24.9613 119.143 25.24C119.495 25.5187 119.957 25.658 120.529 25.658C120.822 25.658 121.093 25.6287 121.343 25.57C121.607 25.5113 121.885 25.4087 122.179 25.262V26.714C121.885 26.8753 121.57 26.9927 121.233 27.066C120.91 27.154 120.543 27.198 120.133 27.198C119.678 27.198 119.253 27.1393 118.857 27.022C118.461 26.9047 118.116 26.7213 117.823 26.472C117.544 26.208 117.324 25.8707 117.163 25.46C117.001 25.0493 116.921 24.558 116.921 23.986V17.122H115.337V15.626H116.921V12.194H118.615V15.626H122.223V17.122H118.615ZM129.335 16.968C128.66 16.968 128.044 17.0487 127.487 17.21C126.944 17.3567 126.409 17.5547 125.881 17.804L125.375 16.418C126.006 16.1247 126.644 15.8973 127.289 15.736C127.934 15.56 128.675 15.472 129.511 15.472C131.066 15.472 132.261 15.8607 133.097 16.638C133.933 17.4007 134.351 18.5373 134.351 20.048V27H132.723V25.284C132.327 25.7973 131.792 26.252 131.117 26.648C130.457 27.044 129.621 27.242 128.609 27.242C128.081 27.242 127.56 27.1687 127.047 27.022C126.548 26.8753 126.094 26.6553 125.683 26.362C125.287 26.054 124.964 25.68 124.715 25.24C124.48 24.8 124.363 24.2793 124.363 23.678C124.363 23.0767 124.48 22.5487 124.715 22.094C124.95 21.6247 125.28 21.236 125.705 20.928C126.145 20.62 126.658 20.3853 127.245 20.224C127.846 20.0627 128.506 19.982 129.225 19.982C129.958 19.982 130.596 20.026 131.139 20.114C131.682 20.202 132.21 20.3193 132.723 20.466V20.07C132.723 19.0433 132.422 18.2733 131.821 17.76C131.234 17.232 130.406 16.968 129.335 16.968ZM129.401 21.236C128.33 21.236 127.509 21.4487 126.937 21.874C126.365 22.2993 126.079 22.8787 126.079 23.612C126.079 23.9787 126.152 24.3013 126.299 24.58C126.46 24.8587 126.673 25.1007 126.937 25.306C127.201 25.4967 127.502 25.6433 127.839 25.746C128.191 25.8487 128.558 25.9 128.939 25.9C129.467 25.9 129.958 25.8267 130.413 25.68C130.882 25.5187 131.286 25.306 131.623 25.042C131.975 24.7633 132.246 24.4407 132.437 24.074C132.642 23.6927 132.745 23.2747 132.745 22.82V21.72C132.32 21.6027 131.828 21.4927 131.271 21.39C130.728 21.2873 130.105 21.236 129.401 21.236ZM146.035 22.138V15.626H147.707V27H146.035V25.02C145.654 25.636 145.155 26.164 144.539 26.604C143.923 27.0293 143.124 27.242 142.141 27.242C141.452 27.242 140.836 27.132 140.293 26.912C139.765 26.692 139.311 26.384 138.929 25.988C138.563 25.5773 138.277 25.0933 138.071 24.536C137.881 23.9787 137.785 23.3627 137.785 22.688V15.626H139.479V22.27C139.479 23.326 139.751 24.162 140.293 24.778C140.836 25.394 141.613 25.702 142.625 25.702C143.109 25.702 143.557 25.6213 143.967 25.46C144.393 25.284 144.752 25.042 145.045 24.734C145.353 24.4113 145.595 24.03 145.771 23.59C145.947 23.15 146.035 22.666 146.035 22.138ZM153.212 22.468V27H151.518V15.626H153.212V18.596C153.417 18.1267 153.674 17.694 153.982 17.298C154.29 16.902 154.642 16.5647 155.038 16.286C155.434 15.9927 155.867 15.7727 156.336 15.626C156.805 15.4793 157.311 15.4133 157.854 15.428V17.254H157.722C157.106 17.254 156.519 17.364 155.962 17.584C155.419 17.804 154.943 18.134 154.532 18.574C154.121 19.014 153.799 19.564 153.564 20.224C153.329 20.8693 153.212 21.6173 153.212 22.468ZM163.989 16.968C163.315 16.968 162.699 17.0487 162.141 17.21C161.599 17.3567 161.063 17.5547 160.535 17.804L160.029 16.418C160.66 16.1247 161.298 15.8973 161.943 15.736C162.589 15.56 163.329 15.472 164.165 15.472C165.72 15.472 166.915 15.8607 167.751 16.638C168.587 17.4007 169.005 18.5373 169.005 20.048V27H167.377V25.284C166.981 25.7973 166.446 26.252 165.771 26.648C165.111 27.044 164.275 27.242 163.263 27.242C162.735 27.242 162.215 27.1687 161.701 27.022C161.203 26.8753 160.748 26.6553 160.337 26.362C159.941 26.054 159.619 25.68 159.369 25.24C159.135 24.8 159.017 24.2793 159.017 23.678C159.017 23.0767 159.135 22.5487 159.369 22.094C159.604 21.6247 159.934 21.236 160.359 20.928C160.799 20.62 161.313 20.3853 161.899 20.224C162.501 20.0627 163.161 19.982 163.879 19.982C164.613 19.982 165.251 20.026 165.793 20.114C166.336 20.202 166.864 20.3193 167.377 20.466V20.07C167.377 19.0433 167.077 18.2733 166.475 17.76C165.889 17.232 165.06 16.968 163.989 16.968ZM164.055 21.236C162.985 21.236 162.163 21.4487 161.591 21.874C161.019 22.2993 160.733 22.8787 160.733 23.612C160.733 23.9787 160.807 24.3013 160.953 24.58C161.115 24.8587 161.327 25.1007 161.591 25.306C161.855 25.4967 162.156 25.6433 162.493 25.746C162.845 25.8487 163.212 25.9 163.593 25.9C164.121 25.9 164.613 25.8267 165.067 25.68C165.537 25.5187 165.94 25.306 166.277 25.042C166.629 24.7633 166.901 24.4407 167.091 24.074C167.297 23.6927 167.399 23.2747 167.399 22.82V21.72C166.974 21.6027 166.483 21.4927 165.925 21.39C165.383 21.2873 164.759 21.236 164.055 21.236ZM174.31 20.488V27H172.616V15.626H174.31V17.606C174.691 16.99 175.19 16.4693 175.806 16.044C176.422 15.604 177.221 15.384 178.204 15.384C178.893 15.384 179.502 15.494 180.03 15.714C180.572 15.934 181.027 16.2493 181.394 16.66C181.775 17.056 182.061 17.5327 182.252 18.09C182.457 18.6473 182.56 19.2633 182.56 19.938V27H180.866V20.356C180.866 19.3 180.594 18.464 180.052 17.848C179.509 17.232 178.732 16.924 177.72 16.924C177.236 16.924 176.781 17.012 176.356 17.188C175.945 17.3493 175.586 17.5913 175.278 17.914C174.97 18.222 174.728 18.596 174.552 19.036C174.39 19.476 174.31 19.96 174.31 20.488ZM188.46 17.122V23.766C188.46 24.47 188.636 24.9613 188.988 25.24C189.34 25.5187 189.802 25.658 190.374 25.658C190.668 25.658 190.939 25.6287 191.188 25.57C191.452 25.5113 191.731 25.4087 192.024 25.262V26.714C191.731 26.8753 191.416 26.9927 191.078 27.066C190.756 27.154 190.389 27.198 189.978 27.198C189.524 27.198 189.098 27.1393 188.702 27.022C188.306 26.9047 187.962 26.7213 187.668 26.472C187.39 26.208 187.17 25.8707 187.008 25.46C186.847 25.0493 186.766 24.558 186.766 23.986V17.122H185.182V15.626H186.766V12.194H188.46V15.626H192.068V17.122H188.46Z" fill="#D14E1D" fill-opacity="0.1"/>
<path d="M54.1873 34.74C53.0673 34.74 52.0373 34.47 51.0973 33.93C50.1773 33.39 49.4373 32.65 48.8773 31.71C48.3373 30.79 48.0673 29.77 48.0673 28.65V21.96L51.3073 21.15V28.65C51.3073 29.43 51.5873 30.1 52.1473 30.66C52.7073 31.24 53.3873 31.53 54.1873 31.53H57.1573C57.9573 31.53 58.6373 31.24 59.1973 30.66C59.7573 30.1 60.0373 29.43 60.0373 28.65V15.96L63.3073 15.15V23.76H65.2573L65.8273 25.38L65.2573 27H63.3073V28.65C63.3073 29.77 63.0273 30.79 62.4673 31.71C61.9273 32.65 61.1873 33.39 60.2473 33.93C59.3073 34.47 58.2773 34.74 57.1573 34.74H54.1873ZM53.0773 14.88H56.0773V17.61H53.0773V14.88ZM64.6761 25.38L65.2461 23.76H67.5561C68.3361 23.76 69.0061 23.48 69.5661 22.92C70.1461 22.36 70.4361 21.68 70.4361 20.88V15.96L73.6461 15.15V20.88C73.6461 22 73.3661 23.03 72.8061 23.97C72.2661 24.89 71.5261 25.63 70.5861 26.19C69.6661 26.73 68.6561 27 67.5561 27H65.2461L64.6761 25.38ZM65.2461 30H72.0261V32.67H65.2461V30ZM76.6318 23.76H78.1318V8.4L81.3718 7.47V23.76H84.2518C85.0318 23.76 85.7018 23.48 86.2618 22.92C86.8418 22.36 87.1318 21.68 87.1318 20.88V8.22L90.3418 7.38V20.88C90.3418 21.68 90.6218 22.36 91.1818 22.92C91.7418 23.48 92.4118 23.76 93.1918 23.76L93.7618 25.38L93.1918 27C92.3318 27 91.5118 26.82 90.7318 26.46C89.9718 26.08 89.3218 25.58 88.7818 24.96C88.2218 25.6 87.5418 26.1 86.7418 26.46C85.9618 26.82 85.1318 27 84.2518 27H76.6318V23.76ZM93.1053 27L92.6253 25.38L93.1653 23.76H93.1953C93.9753 23.76 94.6453 23.48 95.2053 22.92C95.7653 22.36 96.0453 21.68 96.0453 20.88V15.96L99.3153 15.15V20.88C99.3153 22 99.0353 23.03 98.4753 23.97C97.9353 24.89 97.1953 25.63 96.2553 26.19C95.3153 26.73 94.2953 27 93.1953 27H93.1053ZM96.1953 9.33H99.1953V12.09H96.1953V9.33ZM102.296 8.31L105.536 7.5V27H102.296V8.31ZM98.6959 3.06H105.566V1.71L109.136 3.06V5.7H98.6959V3.06ZM113.102 31.14L119.342 27H117.002C116.082 27 115.172 26.73 114.272 26.19C113.392 25.63 112.662 24.88 112.082 23.94C111.522 23 111.242 21.99 111.242 20.91C111.242 19.81 111.512 18.79 112.052 17.85C112.612 16.91 113.362 16.16 114.302 15.6C115.242 15.04 116.262 14.76 117.362 14.76H123.482V23.76H124.952L125.522 25.38L124.952 27H123.482V28.14L114.902 33.84L113.102 31.14ZM114.482 20.88C114.482 21.68 114.762 22.36 115.322 22.92C115.882 23.48 116.562 23.76 117.362 23.76H120.242V18H117.362C116.562 18 115.882 18.28 115.322 18.84C114.762 19.4 114.482 20.08 114.482 20.88ZM124.923 27L124.383 25.38L124.923 23.76H124.953C125.733 23.76 126.403 23.48 126.963 22.92C127.543 22.36 127.833 21.68 127.833 20.88V15.96L131.043 15.15V20.88C131.043 21.68 131.323 22.36 131.883 22.92C132.443 23.48 133.123 23.76 133.923 23.76L134.523 25.38L133.923 27C133.023 27 132.183 26.81 131.403 26.43C130.623 26.05 129.963 25.53 129.423 24.87C128.883 25.53 128.223 26.05 127.443 26.43C126.683 26.81 125.853 27 124.953 27H124.923ZM127.923 9.33H130.923V12.06H127.923V9.33ZM133.858 27L133.348 25.38L133.888 23.76H133.918C134.698 23.76 135.368 23.48 135.928 22.92C136.508 22.36 136.798 21.68 136.798 20.88V14.76H142.888C144.008 14.76 145.038 15.04 145.978 15.6C146.918 16.14 147.658 16.88 148.198 17.82C148.758 18.74 149.038 19.76 149.038 20.88C149.038 22 148.758 23.03 148.198 23.97C147.658 24.89 146.918 25.63 145.978 26.19C145.038 26.73 144.008 27 142.888 27C142.008 27 141.178 26.81 140.398 26.43C139.618 26.05 138.958 25.53 138.418 24.87C137.878 25.53 137.208 26.05 136.408 26.43C135.628 26.81 134.798 27 133.918 27H133.858ZM140.038 20.88C140.038 21.68 140.318 22.36 140.878 22.92C141.438 23.48 142.108 23.76 142.888 23.76C143.688 23.76 144.368 23.48 144.928 22.92C145.488 22.36 145.768 21.68 145.768 20.88C145.768 20.08 145.488 19.41 144.928 18.87C144.368 18.31 143.688 18.03 142.888 18.03H140.038V20.88Z" fill="#004D40"/>
<path d="M160 20H172H184" stroke="#D14E1D" stroke-width="3" stroke-linecap="round"/>
<path d="M9 20L33 20" stroke="#D14E1D" stroke-width="3" stroke-linecap="round"/>
</svg>
