<svg width="136" height="185" viewBox="0 0 136 185" fill="none" xmlns="http://www.w3.org/2000/svg">
<path d="M68.3693 2C77.0857 1.99909 85.7168 3.71511 93.7699 7.05007C101.823 10.385 109.14 15.2736 115.304 21.4367C121.468 27.5997 126.357 34.9165 129.693 42.9693C133.029 51.022 134.746 59.653 134.746 68.3693V183.785H2V68.3693C2 50.7671 8.99246 33.8858 21.4391 21.4391C33.8858 8.99246 50.7671 2 68.3693 2Z" fill="#FFF8EE" stroke="#004D40" stroke-width="2.26133" stroke-miterlimit="10"/>
<path d="M134.739 101H2V145.034H134.739V101Z" stroke="#004D40" stroke-width="2.26133" stroke-miterlimit="10"/>
<path d="M46.4585 161C45.9035 161 45.3881 160.864 44.9124 160.592C44.448 160.309 44.0742 159.935 43.7911 159.471C43.5192 158.995 43.3833 158.48 43.3833 157.925C43.3833 157.37 43.5192 156.86 43.7911 156.396C44.0742 155.931 44.448 155.563 44.9124 155.291C45.3881 155.008 45.9035 154.867 46.4585 154.867H49.5336V157.925C49.5336 158.48 49.392 158.995 49.1089 159.471C48.837 159.935 48.4633 160.309 47.9875 160.592C47.5232 160.864 47.0135 161 46.4585 161ZM44.4537 157.925C44.4537 158.48 44.6462 158.956 45.0313 159.352C45.4277 159.748 45.9035 159.947 46.4585 159.947C47.0135 159.947 47.4835 159.754 47.8686 159.369C48.265 158.973 48.4633 158.491 48.4633 157.925V155.92H46.4585C45.9035 155.92 45.4277 156.118 45.0313 156.515C44.6462 156.9 44.4537 157.37 44.4537 157.925ZM50.8044 159.947H54.7121V157.925C54.7121 157.37 54.5138 156.9 54.1174 156.515C53.7323 156.118 53.2566 155.92 52.6903 155.92H51.3141V154.867H52.6903C53.2566 154.867 53.772 155.003 54.2363 155.274C54.7121 155.546 55.0858 155.92 55.3577 156.396C55.6295 156.86 55.7654 157.37 55.7654 157.925V159.947H56.5639L56.7508 160.456L56.5639 161H50.8044V159.947ZM56.3755 160.473L56.5623 159.947H58.2443C57.9838 159.686 57.7799 159.386 57.6327 159.046C57.4968 158.695 57.4288 158.321 57.4288 157.925C57.4288 157.54 57.4968 157.177 57.6327 156.837C57.7799 156.486 57.9838 156.181 58.2443 155.92H57.3948V154.867H64.8024C65.3574 154.867 65.8671 155.008 66.3315 155.291C66.8072 155.563 67.181 155.931 67.4528 156.396C67.7246 156.86 67.8606 157.37 67.8606 157.925C67.8606 158.48 67.7246 158.995 67.4528 159.471C67.181 159.935 66.8072 160.309 66.3315 160.592C65.8671 160.864 65.3574 161 64.8024 161H56.5623L56.3755 160.473ZM58.4822 157.925C58.4822 158.48 58.6804 158.956 59.0768 159.352C59.4733 159.748 59.949 159.947 60.504 159.947C61.059 159.947 61.529 159.748 61.9141 159.352C62.3106 158.956 62.5088 158.48 62.5088 157.925C62.5088 157.37 62.3106 156.9 61.9141 156.515C61.529 156.118 61.059 155.92 60.504 155.92C59.9377 155.92 59.4563 156.118 59.0598 156.515C58.6747 156.9 58.4822 157.37 58.4822 157.925ZM64.8024 159.947C65.1648 159.947 65.499 159.856 65.8048 159.675C66.1106 159.494 66.3541 159.25 66.5354 158.944C66.7279 158.627 66.8242 158.287 66.8242 157.925C66.8242 157.37 66.6203 156.9 66.2126 156.515C65.8161 156.118 65.3461 155.92 64.8024 155.92H62.7466C63.0071 156.181 63.2054 156.486 63.3413 156.837C63.4885 157.177 63.5621 157.54 63.5621 157.925C63.5621 158.321 63.4885 158.695 63.3413 159.046C63.2054 159.386 63.0071 159.686 62.7466 159.947H64.8024ZM72.7396 161C72.1846 161 71.6692 160.864 71.1935 160.592C70.7291 160.309 70.3553 159.935 70.0722 159.471C69.8003 158.995 69.6644 158.48 69.6644 157.925V151.061L70.7348 150.806V157.925C70.7348 158.48 70.9273 158.956 71.3124 159.352C71.7088 159.748 72.1846 159.947 72.7396 159.947L72.9264 160.473L72.7396 161ZM72.7052 161L72.5523 160.473L72.7222 159.947H72.7392C73.2942 159.947 73.7699 159.748 74.1663 159.352C74.5627 158.956 74.7609 158.48 74.7609 157.925V155.699H75.8143V158.418C75.8143 158.837 75.9616 159.199 76.256 159.505C76.5505 159.799 76.9073 159.947 77.3264 159.947C77.7568 159.947 78.1193 159.799 78.4137 159.505C78.7196 159.199 78.8725 158.837 78.8725 158.418V155.699H79.9258V158.418C79.9258 158.837 80.0731 159.199 80.3676 159.505C80.6734 159.799 81.0358 159.947 81.4549 159.947C81.874 159.947 82.2364 159.799 82.5423 159.505C82.8481 159.199 83.001 158.837 83.001 158.418V155.512L84.0374 155.257V157.925C84.0374 158.48 84.2356 158.956 84.632 159.352C85.0284 159.748 85.5042 159.947 86.0592 159.947L86.246 160.473L86.0592 161C85.5834 161 85.1247 160.892 84.683 160.677C84.2526 160.462 83.9014 160.167 83.6296 159.794C83.3918 160.167 83.0803 160.462 82.6952 160.677C82.3214 160.892 81.908 161 81.4549 161C81.0925 161 80.7187 160.898 80.3336 160.694C79.9598 160.479 79.6483 160.23 79.3992 159.947C79.1613 160.275 78.8611 160.536 78.4987 160.728C78.1362 160.909 77.7455 161 77.3264 161C76.93 161 76.5222 160.875 76.1031 160.626C75.6841 160.366 75.3726 160.088 75.1687 159.794C74.8855 160.167 74.5287 160.462 74.0983 160.677C73.6793 160.892 73.2262 161 72.7392 161H72.7052ZM77.7851 152.539H79.9258V150.976L81.0132 151.265V153.507H77.7851V152.539ZM86.0452 161L85.8753 160.473L86.0452 159.947H86.0622C86.6172 159.947 87.0873 159.748 87.4724 159.352C87.8688 158.956 88.067 158.48 88.067 157.925V154.85H91.1422C91.6972 154.85 92.2125 154.991 92.6882 155.274C93.1639 155.546 93.5377 155.92 93.8096 156.396C94.0927 156.86 94.2343 157.37 94.2343 157.925C94.2343 158.48 94.0927 158.995 93.8096 159.471C93.5377 159.935 93.1639 160.309 92.6882 160.592C92.2125 160.864 91.6972 161 91.1422 161C90.6211 161 90.1341 160.875 89.681 160.626C89.2393 160.377 88.8825 160.043 88.6107 159.624C88.3275 160.043 87.9594 160.377 87.5063 160.626C87.0646 160.875 86.5832 161 86.0622 161H86.0452ZM89.1543 157.925C89.1543 158.491 89.3469 158.973 89.732 159.369C90.1171 159.754 90.5872 159.947 91.1422 159.947C91.6972 159.947 92.1672 159.754 92.5523 159.369C92.9487 158.973 93.147 158.491 93.147 157.925C93.147 157.359 92.9544 156.883 92.5693 156.498C92.1842 156.113 91.7085 155.92 91.1422 155.92H89.1543V157.925Z" fill="#F9FAFB"/>
<path d="M133 146H3V182H133V146Z" fill="#014F42" stroke="#004D40" stroke-width="2.26133" stroke-miterlimit="10"/>
</svg>
