<svg width="324" height="100" viewBox="0 0 324 100" fill="none" xmlns="http://www.w3.org/2000/svg">
<path d="M74.4118 31.0978H72.8365C70.5895 26.7995 67.1998 23.1971 63.0368 20.683C58.8738 18.1688 54.0971 16.8394 49.227 16.8394C44.3569 16.8394 39.5802 18.1688 35.4172 20.683C31.2542 23.1971 27.8646 26.7995 25.6175 31.0978H24.0422C20.4226 31.0978 16.9512 32.5282 14.3917 35.0744C11.8322 37.6206 10.3943 41.0739 10.3943 44.6748C10.3943 48.2756 11.8322 51.729 14.3917 54.2752C16.9512 56.8214 20.4226 58.2518 24.0422 58.2518H27.3606V82.9396H71.0934V59.0867V58.1747H74.4118C78.0315 58.1747 81.5029 56.7443 84.0624 54.1981C86.6218 51.6519 88.0598 48.1986 88.0598 44.5977C88.0598 40.9969 86.6218 37.5435 84.0624 34.9973C81.5029 32.4511 78.0315 31.0207 74.4118 31.0207V31.0978ZM30.1754 80.1395V76.9025H68.2786V80.1395H30.1754ZM74.4247 55.4388H71.0934C71.107 54.3598 71.5465 53.3294 72.3171 52.57C73.0877 51.8106 74.1276 51.3831 75.2123 51.3798H76.1807V48.5282H75.2123C73.3878 48.5315 71.6377 49.2487 70.3403 50.5249C69.0429 51.8011 68.3024 53.5339 68.2786 55.3489V74.1024H50.6409V56.749L59.7955 50.5706L58.2202 48.2585L50.6409 53.3965V47.6163L59.7955 41.4379L58.2202 39.1258L50.6409 44.2638V34.887H47.7744V44.2381L40.1951 39.1001L38.6198 41.4122L47.7744 47.6163V53.3708L40.1951 48.2328L38.6198 50.5449L47.7744 56.749V74.1024H30.1754V55.4388C30.1754 53.6082 29.4453 51.8524 28.1454 50.5568C26.8454 49.2612 25.0818 48.5316 23.2417 48.5282H22.2733V51.3798H23.2417C24.3341 51.3798 25.3818 51.8115 26.1542 52.5799C26.9267 53.3484 27.3606 54.3906 27.3606 55.4773H24.0422C21.2355 55.3809 18.5762 54.2039 16.6249 52.1946C14.6737 50.1853 13.583 47.5007 13.583 44.7069C13.583 41.9131 14.6737 39.2285 16.6249 37.2192C18.5762 35.2099 21.2355 34.0329 24.0422 33.9365H27.3864L27.7609 33.1401C29.6986 29.1112 32.7425 25.7099 36.541 23.3289C40.3394 20.9479 44.7374 19.6845 49.227 19.6845C53.7166 19.6845 58.1147 20.9479 61.9131 23.3289C65.7115 25.7099 68.7554 29.1112 70.6932 33.1401L71.0676 33.9365H74.4118C77.2185 34.0329 79.8779 35.2099 81.8291 37.2192C83.7804 39.2285 84.871 41.9131 84.871 44.7069C84.871 47.5007 83.7804 50.1853 81.8291 52.1946C79.8779 54.2039 77.2185 55.3809 74.4118 55.4773L74.4247 55.4388Z" fill="#CD470A"/>
<path d="M109.016 83.4916C108.563 83.2266 108.185 82.8508 107.918 82.3998C107.656 81.9511 107.518 81.4415 107.518 80.9226V77.5701L109.365 77.0691V80.9226C109.362 81.0769 109.391 81.2301 109.449 81.3734C109.506 81.5167 109.592 81.6473 109.7 81.7575C109.809 81.869 109.94 81.9573 110.084 82.017C110.228 82.0766 110.383 82.1063 110.54 82.1043H111.934C112.087 82.1075 112.238 82.0782 112.378 82.0183C112.519 81.9585 112.645 81.8696 112.748 81.7575C112.86 81.6497 112.949 81.5199 113.009 81.3762C113.069 81.2326 113.099 81.0781 113.096 80.9226V74.7956L114.917 74.3332V80.9226C114.915 81.4437 114.775 81.9551 114.512 82.4059C114.25 82.8567 113.873 83.231 113.419 83.4916C112.962 83.7603 112.439 83.8981 111.908 83.8898H110.54C110.005 83.8965 109.478 83.7589 109.016 83.4916ZM109.791 74.0249H111.379V75.4892H109.752L109.791 74.0249Z" fill="#CD470A"/>
<path d="M160.393 75.708C160.13 75.2541 159.751 74.8774 159.295 74.6162C158.842 74.3482 158.325 74.2062 157.797 74.2051H154.789V77.2108C154.791 77.3643 154.761 77.5165 154.701 77.658C154.641 77.7994 154.552 77.927 154.44 78.0329C154.229 78.2363 153.947 78.3512 153.653 78.354H119.32C119.007 78.3571 118.705 78.237 118.48 78.02C118.368 77.9122 118.278 77.7824 118.218 77.6388C118.158 77.4951 118.129 77.3407 118.132 77.1851V70.7627L116.298 71.2251V77.1594C116.293 77.6871 116.431 78.2064 116.699 78.6623C116.965 79.1133 117.343 79.4891 117.796 79.7541C118.258 80.0214 118.785 80.1591 119.32 80.1523H153.653C154.049 80.1572 154.442 80.0738 154.802 79.9082C155.158 79.7517 155.479 79.5244 155.744 79.2403C156.013 79.5278 156.339 79.7571 156.701 79.914C157.063 80.0709 157.454 80.152 157.849 80.1523C158.375 80.1557 158.892 80.0182 159.347 79.7541C159.8 79.4891 160.178 79.1133 160.444 78.6623C160.707 78.2045 160.845 77.6865 160.845 77.1594C160.845 76.6323 160.707 76.1144 160.444 75.6566L160.393 75.708ZM158.624 78.0329C158.517 78.1441 158.389 78.2322 158.247 78.2919C158.105 78.3516 157.952 78.3815 157.797 78.3797C157.642 78.3832 157.488 78.3554 157.344 78.2979C157.199 78.2404 157.068 78.1544 156.959 78.0452C156.849 77.9359 156.762 77.8057 156.705 77.6623C156.647 77.5188 156.619 77.3653 156.622 77.2108V76.0291H157.797C157.952 76.0273 158.105 76.0572 158.247 76.1169C158.389 76.1766 158.517 76.2647 158.624 76.3759C158.736 76.4842 158.825 76.6141 158.884 76.7576C158.944 76.9012 158.974 77.0554 158.972 77.2108C158.974 77.3643 158.944 77.5165 158.884 77.658C158.824 77.7994 158.735 77.927 158.624 78.0329Z" fill="#CD470A"/>
<path d="M161.064 82.0397L162.355 81.192V74.7695L164.176 74.3071V82.2067L162.084 83.594L161.064 82.0397Z" fill="#CD470A"/>
<path d="M166.087 82.0526L168.876 80.203H168.062C167.603 80.1945 167.155 80.0565 166.771 79.8048C166.332 79.5366 165.964 79.1664 165.699 78.7258C165.415 78.2761 165.267 77.7543 165.273 77.223C165.271 76.6957 165.409 76.1772 165.674 75.7201C165.94 75.2691 166.318 74.8933 166.771 74.6283C167.229 74.3626 167.751 74.225 168.282 74.2301H171.29V80.7938L167.094 83.5683L166.087 82.0526ZM167.443 78.0322C167.551 78.1443 167.681 78.233 167.826 78.2927C167.97 78.3524 168.126 78.3818 168.282 78.379H169.47V76.0284H168.282C168.128 76.0266 167.975 76.0565 167.832 76.1162C167.69 76.1759 167.562 76.264 167.456 76.3752C167.342 76.4801 167.253 76.6075 167.193 76.7492C167.133 76.8909 167.104 77.0436 167.107 77.1973C167.104 77.5087 167.224 77.8088 167.443 78.0322Z" fill="#CD470A"/>
<path d="M172.646 71.2759L174.492 70.8135V80.2031H172.646V71.2759Z" fill="#CD470A"/>
<path d="M118.17 89.8372C118.17 89.3194 117.964 88.8228 117.595 88.4566C117.227 88.0905 116.728 87.8848 116.208 87.8848H113.987V93.0227H114.813V91.8153H116.208C116.349 91.8334 116.492 91.8334 116.634 91.8153L117.551 93.0998L118.209 92.6631L117.383 91.4813C117.638 91.2908 117.842 91.0418 117.979 90.7555C118.117 90.4692 118.182 90.1541 118.17 89.8372ZM117.344 89.8372C117.344 90.1404 117.223 90.4312 117.007 90.6456C116.792 90.8599 116.5 90.9804 116.195 90.9804H114.813V88.7068H116.208C116.508 88.7102 116.795 88.8303 117.007 89.0416C117.22 89.2529 117.341 89.5384 117.344 89.8372Z" fill="#CD470A"/>
<path d="M126.705 87.6665C126.103 87.6665 125.526 87.9025 125.098 88.3233C124.67 88.7441 124.426 89.3158 124.42 89.9144V93.01H125.246V91.7255H128.164V93.01H128.991V89.9144C128.984 89.3158 128.74 88.7441 128.312 88.3233C127.884 87.9025 127.307 87.6665 126.705 87.6665ZM128.164 89.9144V90.9548H125.246V89.9144C125.246 89.5294 125.4 89.1602 125.673 88.888C125.947 88.6158 126.318 88.4629 126.705 88.4629C127.092 88.4629 127.463 88.6158 127.737 88.888C128.01 89.1602 128.164 89.5294 128.164 89.9144Z" fill="#CD470A"/>
<path d="M121.347 89.8115L119.875 87.9105L119.862 87.8848H119.01V93.0099H119.849V89.5418L121.321 91.4428L122.819 89.6317V93.0099H123.658V87.8848H122.909L121.347 89.8115Z" fill="#CD470A"/>
<path d="M134.142 87.7305V92.9712L133.406 92.9455L133.38 92.9326L130.591 89.259V92.9712H129.752V87.8332H130.54L130.553 87.8589L133.316 91.4812V87.936L134.142 87.7305Z" fill="#CD470A"/>
<path d="M110.578 87.6914C110.05 87.694 109.534 87.8521 109.097 88.1458C108.659 88.4395 108.318 88.8556 108.118 89.3417C107.918 89.8277 107.866 90.362 107.971 90.8769C108.076 91.3918 108.331 91.8644 108.705 92.2349C109.08 92.6055 109.556 92.8575 110.074 92.959C110.592 93.0606 111.129 93.0072 111.617 92.8056C112.104 92.604 112.521 92.2631 112.814 91.8262C113.107 91.3892 113.264 90.8757 113.264 90.3503C113.264 90.0001 113.194 89.6533 113.059 89.3298C112.924 89.0064 112.726 88.7127 112.476 88.4657C112.227 88.2186 111.931 88.023 111.605 87.8901C111.279 87.7573 110.93 87.6897 110.578 87.6914ZM112.399 90.6714C112.339 91.0199 112.18 91.3439 111.939 91.6038C111.699 91.8638 111.387 92.0486 111.043 92.1358H110.862H110.41C110.35 92.143 110.289 92.143 110.229 92.1358C109.877 92.0568 109.557 91.8753 109.308 91.6146C109.06 91.3539 108.895 91.0256 108.835 90.6714C108.835 90.6714 108.835 90.6715 108.835 90.5687V90.4146C108.835 89.9274 109.029 89.4602 109.376 89.1157C109.722 88.7713 110.192 88.5777 110.681 88.5777C111.164 88.5878 111.624 88.7858 111.962 89.1292C112.3 89.4725 112.489 89.934 112.489 90.4146V90.5815C112.483 90.6155 112.483 90.6503 112.489 90.6843C112.489 90.6843 112.399 90.6586 112.399 90.6714Z" fill="#CD470A"/>
<path d="M136.867 87.602H138.868C139.389 87.5715 139.905 87.7213 140.327 88.0259C140.502 88.1707 140.641 88.354 140.733 88.5613C140.825 88.7686 140.867 88.9942 140.857 89.2205C140.867 89.5576 140.773 89.8897 140.586 90.171C140.39 90.4408 140.115 90.6429 139.798 90.749L141.089 92.9969H140.121L138.972 90.916H137.822V92.9969H136.867V87.602ZM138.946 90.2609C139.079 90.2693 139.212 90.2496 139.336 90.2031C139.461 90.1566 139.574 90.0844 139.669 89.9912C139.848 89.7989 139.947 89.5466 139.947 89.2847C139.947 89.0228 139.848 88.7705 139.669 88.5783C139.56 88.4829 139.433 88.4099 139.296 88.3636C139.158 88.3173 139.013 88.2986 138.868 88.3085H137.797V90.2609H138.946Z" fill="#CD470A"/>
<path d="M141.657 91.0056C141.65 90.6371 141.73 90.272 141.89 89.9395C142.028 89.6344 142.252 89.3756 142.535 89.1945C142.838 89.0095 143.187 88.9158 143.542 88.9248C143.782 88.9092 144.023 88.9473 144.246 89.0362C144.47 89.1251 144.67 89.2626 144.834 89.4386C145.159 89.8308 145.325 90.3305 145.298 90.8386V91.1983H142.561V91.3139C142.573 91.5263 142.635 91.733 142.742 91.9176C142.848 92.0904 142.994 92.2356 143.168 92.3415C143.348 92.4449 143.554 92.4981 143.762 92.4956C143.959 92.5002 144.155 92.4597 144.334 92.3773C144.513 92.2949 144.671 92.1728 144.795 92.0204L145.182 92.4828C145.02 92.7025 144.801 92.8754 144.549 92.9837C144.279 93.1123 143.984 93.1782 143.684 93.1764C143.328 93.1798 142.976 93.0913 142.664 92.9195C142.361 92.7569 142.11 92.5119 141.941 92.213C141.767 91.8893 141.678 91.5269 141.683 91.1598L141.657 91.0056ZM144.433 90.6588V90.5817C144.439 90.3302 144.346 90.0863 144.175 89.901C144.096 89.812 143.999 89.7417 143.889 89.695C143.78 89.6483 143.661 89.6265 143.542 89.6312C143.42 89.6287 143.298 89.6514 143.185 89.6978C143.071 89.7442 142.969 89.8134 142.884 89.901C142.686 90.108 142.564 90.3747 142.535 90.6588H144.433Z" fill="#CD470A"/>
<path d="M146.577 92.9713C146.308 92.8803 146.074 92.7101 145.905 92.4832C145.753 92.2939 145.671 92.0579 145.673 91.8153H146.461C146.457 91.912 146.479 92.008 146.524 92.0937C146.569 92.1794 146.636 92.2517 146.719 92.3034C146.916 92.4246 147.146 92.4828 147.377 92.4704C147.578 92.4798 147.777 92.4258 147.945 92.3162C148.015 92.2779 148.073 92.2222 148.113 92.1545C148.154 92.0869 148.176 92.0098 148.178 91.9309C148.174 91.8443 148.149 91.76 148.103 91.6859C148.058 91.6118 147.995 91.5503 147.92 91.507C147.697 91.3777 147.451 91.2906 147.197 91.2501C146.813 91.1859 146.45 91.0318 146.138 90.8005C146.028 90.7102 145.941 90.5961 145.883 90.4669C145.825 90.3377 145.797 90.197 145.802 90.0555C145.799 89.8366 145.872 89.6234 146.009 89.4518C146.147 89.2642 146.335 89.1177 146.551 89.0279C146.808 88.9203 147.085 88.8678 147.364 88.8738C147.796 88.8532 148.223 88.9752 148.578 89.2206C148.723 89.324 148.84 89.4613 148.919 89.6203C148.998 89.7794 149.036 89.9554 149.03 90.1326H148.165C148.166 90.0421 148.148 89.9524 148.11 89.8701C148.072 89.7878 148.015 89.7151 147.945 89.6574C147.776 89.5275 147.565 89.4635 147.351 89.4775C147.163 89.4691 146.976 89.5233 146.822 89.6317C146.757 89.6752 146.703 89.7345 146.667 89.8042C146.631 89.8738 146.613 89.9515 146.615 90.0298C146.615 90.0961 146.632 90.1613 146.663 90.2196C146.695 90.2779 146.741 90.3275 146.796 90.3638C146.92 90.4565 147.06 90.5261 147.209 90.5693L147.881 90.7492C148.199 90.8005 148.495 90.9434 148.733 91.1602C148.891 91.3331 148.986 91.5539 149.002 91.7869C149.018 92.0199 148.955 92.2516 148.823 92.4447C148.667 92.6365 148.462 92.7829 148.229 92.8686C147.682 93.0833 147.073 93.0833 146.525 92.8686L146.577 92.9713Z" fill="#CD470A"/>
<path d="M151.728 89.6317H150.967V91.8667C150.955 92.0194 150.991 92.1719 151.07 92.3035C151.118 92.3518 151.177 92.3884 151.242 92.4107C151.307 92.4329 151.376 92.4402 151.444 92.4319H151.793V93.0742C151.6 93.1321 151.4 93.1623 151.199 93.1641C151.044 93.1761 150.889 93.1561 150.742 93.1052C150.595 93.0544 150.461 92.9738 150.347 92.8687C150.147 92.6223 150.046 92.3112 150.063 91.9952V89.6317H149.469V89.0023H150.063V87.9619H150.954V89.0023H151.716L151.728 89.6317Z" fill="#CD470A"/>
<path d="M152.852 92.9835C152.659 92.8843 152.495 92.7386 152.374 92.5596C152.26 92.379 152.202 92.1691 152.206 91.9559C152.201 91.7673 152.243 91.5804 152.328 91.4122C152.414 91.2439 152.541 91.0996 152.697 90.9925C153.114 90.748 153.595 90.6318 154.079 90.6586H154.711V90.2861C154.717 90.1878 154.703 90.0894 154.67 89.9967C154.636 89.904 154.585 89.8189 154.518 89.7466C154.349 89.63 154.148 89.5675 153.943 89.5675C153.738 89.5675 153.537 89.63 153.368 89.7466C153.301 89.8004 153.248 89.8691 153.212 89.9471C153.176 90.0251 153.159 90.1104 153.162 90.1962H152.361C152.357 89.9612 152.429 89.7312 152.568 89.5411C152.726 89.3403 152.936 89.1851 153.175 89.0915C153.448 88.9746 153.743 88.9176 154.04 88.9245C154.458 88.8993 154.872 89.0272 155.202 89.2842C155.343 89.4074 155.455 89.5597 155.531 89.7305C155.607 89.9013 155.644 90.0865 155.641 90.2732V92.1229C155.621 92.4222 155.674 92.7219 155.796 92.9963H154.905C154.848 92.834 154.809 92.666 154.789 92.4954C154.652 92.683 154.471 92.834 154.261 92.9349C154.052 93.0358 153.82 93.0834 153.588 93.0734C153.339 93.1058 153.086 93.0749 152.852 92.9835ZM153.265 92.3156C153.33 92.3734 153.405 92.4179 153.487 92.4466C153.569 92.4752 153.656 92.4875 153.743 92.4825C153.949 92.4834 154.153 92.4349 154.337 92.3413C154.5 92.2443 154.63 92.1012 154.711 91.9302V91.1981H154.13C153.865 91.1904 153.602 91.2524 153.368 91.3779C153.275 91.4361 153.198 91.5178 153.146 91.6147C153.094 91.7116 153.068 91.8204 153.071 91.9302C153.074 92.0046 153.092 92.0775 153.126 92.1441C153.159 92.2106 153.207 92.2691 153.265 92.3156Z" fill="#CD470A"/>
<path d="M159.075 92.5605C158.938 92.75 158.754 92.9022 158.542 93.0031C158.33 93.1041 158.096 93.1506 157.862 93.1385C157.675 93.1487 157.488 93.1183 157.314 93.0496C157.14 92.9808 156.983 92.8753 156.854 92.7403C156.602 92.4241 156.478 92.0255 156.506 91.6228V89.0538H157.397V91.6228C157.379 91.8394 157.444 92.0546 157.578 92.2265C157.649 92.2992 157.736 92.3553 157.832 92.3908C157.928 92.4264 158.031 92.4404 158.133 92.432C158.322 92.4382 158.509 92.3938 158.675 92.3036C158.83 92.2116 158.955 92.078 159.037 91.9182V89.0024H159.915V93.0614H159.088L159.075 92.5605Z" fill="#CD470A"/>
<path d="M160.844 89.0021H161.671V89.6443C161.752 89.4313 161.897 89.2482 162.087 89.1196C162.276 88.9911 162.5 88.9232 162.729 88.925C162.836 88.9046 162.946 88.9046 163.052 88.925V89.7342C162.941 89.7169 162.828 89.7169 162.716 89.7342C162.49 89.7287 162.268 89.7963 162.084 89.9269C161.906 90.0749 161.776 90.2714 161.709 90.4921V93.061H160.844V89.0021Z" fill="#CD470A"/>
<path d="M163.982 92.9835C163.794 92.8826 163.635 92.737 163.517 92.5596C163.399 92.3801 163.336 92.1703 163.336 91.9559C163.331 91.7673 163.373 91.5804 163.459 91.4122C163.544 91.2439 163.671 91.0996 163.827 90.9925C164.249 90.7484 164.734 90.6323 165.222 90.6586H165.841V90.2861C165.847 90.1878 165.833 90.0894 165.8 89.9967C165.766 89.904 165.715 89.8189 165.648 89.7466C165.487 89.6184 165.285 89.5543 165.08 89.5668C164.874 89.5503 164.67 89.6149 164.511 89.7466C164.44 89.7976 164.383 89.8654 164.345 89.9438C164.306 90.0223 164.288 90.109 164.292 90.1962H163.44C163.434 89.959 163.511 89.7272 163.659 89.5411C163.808 89.3363 164.015 89.1799 164.253 89.0915C164.526 88.9746 164.821 88.9176 165.118 88.9245C165.537 88.8993 165.95 89.0272 166.28 89.2842C166.421 89.4074 166.534 89.5597 166.61 89.7305C166.685 89.9013 166.723 90.0865 166.719 90.2732V92.1229C166.7 92.4222 166.753 92.7219 166.874 92.9963H165.983C165.925 92.8351 165.891 92.6664 165.88 92.4954C165.742 92.684 165.558 92.8356 165.346 92.9365C165.135 93.0373 164.901 93.0844 164.666 93.0734C164.434 93.0959 164.2 93.0652 163.982 92.9835ZM164.395 92.3156C164.526 92.4311 164.698 92.491 164.873 92.4825C165.08 92.4877 165.285 92.439 165.467 92.3413C165.63 92.2443 165.76 92.1012 165.841 91.9302V91.1981H165.273C165.012 91.1902 164.753 91.2523 164.524 91.3779C164.426 91.4324 164.346 91.5129 164.291 91.6104C164.236 91.708 164.21 91.8186 164.214 91.9302C164.22 92.0067 164.242 92.081 164.28 92.1476C164.318 92.2143 164.371 92.2717 164.434 92.3156H164.395Z" fill="#CD470A"/>
<path d="M167.688 93.0608V89.0018H168.514V89.6441C168.646 89.4256 168.827 89.2408 169.043 89.1046C169.256 88.9855 169.496 88.9235 169.741 88.9248C169.924 88.9148 170.108 88.944 170.28 89.0105C170.451 89.0769 170.606 89.1791 170.735 89.3101C170.979 89.6447 171.097 90.0536 171.07 90.4661V93.0351H170.18V90.4661C170.195 90.2378 170.131 90.0112 169.999 89.8239C169.926 89.7494 169.837 89.6923 169.738 89.6567C169.64 89.6211 169.535 89.608 169.431 89.6184C169.235 89.6165 169.044 89.6798 168.888 89.7982C168.724 89.9268 168.603 90.1013 168.54 90.2992V93.0608H167.688Z" fill="#CD470A"/>
<path d="M173.872 89.6317H173.111V91.8667C173.099 92.0194 173.135 92.1719 173.214 92.3035C173.262 92.3526 173.321 92.3898 173.386 92.4121C173.451 92.4344 173.52 92.4412 173.588 92.4319H173.937V93.0742C173.744 93.1321 173.544 93.1623 173.343 93.1641C173.188 93.1761 173.032 93.1561 172.886 93.1052C172.739 93.0544 172.605 92.9738 172.491 92.8687C172.291 92.6223 172.19 92.3112 172.207 91.9952V89.6317H171.613V89.0023H172.207V87.9619H173.098V89.0023H173.859L173.872 89.6317Z" fill="#CD470A"/>
<path d="M49.2333 0C36.18 0.0136009 23.6653 5.17808 14.4352 14.3602C5.20513 23.5423 0.013672 35.992 0 48.9775L0 99.8688H98.4537V48.9775C98.4435 35.9932 93.2549 23.5434 84.0269 14.361C74.7988 5.1785 62.2854 0.0136063 49.2333 0ZM95.4582 96.9016H2.99558V48.9775C2.89302 42.8732 4.01305 36.8096 6.29035 31.1404C8.56765 25.4711 11.9567 20.3095 16.2598 15.9566C20.5629 11.6037 25.6941 8.14652 31.3541 5.78664C37.0142 3.42675 43.0898 2.21138 49.2269 2.21138C55.3639 2.21138 61.4396 3.42675 67.0996 5.78664C72.7596 8.14652 77.8908 11.6037 82.1939 15.9566C86.4971 20.3095 89.8861 25.4711 92.1634 31.1404C94.4407 36.8096 95.5607 42.8732 95.4582 48.9775V96.9016Z" fill="#CD470A"/>
<path d="M186.759 99.9998H95.4583V64.2012H186.759V99.9998ZM98.4409 97.0326H183.776V67.1683H98.4409V97.0326Z" fill="#CD470A"/>
<path d="M324 99.9998H183.763V64.2012H324V99.9998ZM186.745 97.0326H321.017V67.1683H186.745V97.0326Z" fill="#CD470A"/>
<path d="M191.216 78.492H192.632L193.82 83.832L194.036 84.792L194.276 83.832L195.656 78.492H196.88L198.272 83.832L198.512 84.792L198.74 83.832L199.916 78.492H201.344L199.352 87H197.864L196.532 81.948L196.268 81L196.016 81.948L194.684 87H193.196L191.216 78.492ZM202.41 78.492H208.026V79.596H203.826V82.08H207.438V83.172H203.826V85.884H208.014V87H202.41V78.492ZM209.137 78.492H210.565V85.884H214.405V87H209.137V78.492ZM218.574 87.12C217.95 87.12 217.382 86.98 216.87 86.7C216.358 86.412 215.946 85.968 215.634 85.368C215.322 84.76 215.166 84.008 215.166 83.112V82.356C215.166 81.836 215.258 81.272 215.442 80.664C215.634 80.056 215.982 79.524 216.486 79.068C216.99 78.604 217.682 78.368 218.562 78.36C219.538 78.36 220.322 78.62 220.914 79.14C221.514 79.66 221.854 80.38 221.934 81.3H220.506C220.474 80.692 220.294 80.244 219.966 79.956C219.638 79.66 219.17 79.512 218.562 79.512C217.93 79.512 217.442 79.748 217.098 80.22C216.762 80.684 216.594 81.372 216.594 82.284V83.112C216.594 85.016 217.254 85.968 218.574 85.968C219.174 85.968 219.634 85.824 219.954 85.536C220.282 85.248 220.466 84.804 220.506 84.204H221.91C221.886 84.644 221.766 85.084 221.55 85.524C221.334 85.964 220.982 86.34 220.494 86.652C220.006 86.964 219.366 87.12 218.574 87.12ZM226.486 87.12C225.79 87.12 225.174 86.956 224.638 86.628C224.102 86.292 223.686 85.824 223.39 85.224C223.094 84.616 222.946 83.924 222.946 83.148V82.404C222.946 81.62 223.086 80.924 223.366 80.316C223.646 79.7 224.054 79.22 224.59 78.876C225.126 78.532 225.758 78.36 226.486 78.36C227.19 78.36 227.806 78.528 228.334 78.864C228.87 79.192 229.286 79.66 229.582 80.268C229.878 80.876 230.026 81.576 230.026 82.368V83.076C230.026 83.884 229.878 84.596 229.582 85.212C229.286 85.82 228.87 86.292 228.334 86.628C227.806 86.956 227.19 87.12 226.486 87.12ZM224.386 83.076C224.386 83.996 224.57 84.712 224.938 85.224C225.314 85.728 225.83 85.98 226.486 85.98C227.15 85.98 227.666 85.728 228.034 85.224C228.402 84.712 228.586 84 228.586 83.088V82.392C228.586 81.48 228.402 80.772 228.034 80.268C227.666 79.764 227.15 79.512 226.486 79.512C225.83 79.512 225.314 79.748 224.938 80.22C224.57 80.692 224.386 81.364 224.386 82.236V83.076ZM231.403 78.492H233.275L235.771 85.176L238.243 78.492H240.127V87H238.699V85.212L238.819 80.22L236.239 87H235.291L232.687 80.22L232.819 85.188V87H231.403V78.492ZM241.82 78.492H247.436V79.596H243.236V82.08H246.848V83.172H243.236V85.884H247.424V87H241.82V78.492ZM248.559 79.692H249.675V85.02H248.559V79.692ZM248.523 85.992H249.723V87.108H248.523V85.992Z" fill="#014F42"/>
</svg>
