<svg width="360" height="800" viewBox="0 0 360 800" fill="none" xmlns="http://www.w3.org/2000/svg">
<g clip-path="url(#clip0_4907_26724)" filter="url(#filter0_b_4907_26724)">
<rect width="360" height="800" fill="#FFF0D8"/>
<g filter="url(#filter1_f_4907_26724)">
<circle cx="93" cy="180" r="103" fill="#D14E1D" fill-opacity="0.38"/>
</g>
<g filter="url(#filter2_f_4907_26724)">
<circle cx="179.5" cy="799.5" r="281.5" fill="#D14E1D" fill-opacity="0.18"/>
</g>
<path d="M180.151 8.5C226.459 8.5 270.879 27.441 303.637 61.1712C336.397 94.9028 354.809 140.662 354.809 188.384V569.938V791.493C354.809 791.774 354.7 792.035 354.52 792.221C354.341 792.405 354.108 792.5 353.874 792.5H6.43509C6.20147 792.5 5.96823 792.405 5.78927 792.221C5.60885 792.035 5.5 791.774 5.5 791.493V569.938V188.384C5.5 140.663 23.9107 94.9053 56.6689 61.1739C89.4257 27.444 133.844 8.50208 180.151 8.5Z" stroke="#014F42" stroke-width="3" stroke-miterlimit="10"/>
<path d="M203.897 108.72L202 8.5" stroke="#014F42" stroke-width="3.77313" stroke-miterlimit="10"/>
<path d="M186.784 111.733L145 10.5" stroke="#014F42" stroke-width="3.77313" stroke-miterlimit="10"/>
<path d="M171.736 120.422L95.5 28.5" stroke="#014F42" stroke-width="3.77313" stroke-miterlimit="10"/>
<path d="M136.607 119.9L56 59" stroke="#014F42" stroke-width="3.77313" stroke-miterlimit="10"/>
<path d="M114.068 142.907L18.5 115.5" stroke="#014F42" stroke-width="3.77313" stroke-miterlimit="10"/>
<path d="M254.321 150.058L347.657 137" stroke="#014F42" stroke-width="3.77313" stroke-miterlimit="10"/>
<path d="M247.221 133.734L325.5 88.5" stroke="#014F42" stroke-width="3.77313" stroke-miterlimit="10"/>
<path d="M236.051 120.422L293 50" stroke="#014F42" stroke-width="3.77313" stroke-miterlimit="10"/>
<path d="M221.003 111.733L250.5 23" stroke="#014F42" stroke-width="3.77313" stroke-miterlimit="10"/>
<path d="M160.167 132.452C167.27 121.505 178.256 113.655 190.914 110.483C203.572 107.311 216.962 109.052 228.387 115.357C239.813 121.661 248.426 132.06 252.491 144.46C256.557 156.859 255.775 170.339 250.301 182.185" stroke="#014F42" stroke-width="3.77313" stroke-miterlimit="10"/>
<path d="M4.34229 255.428L142.295 114.618L215.982 188.139" stroke="#014F42" stroke-width="3.77313" stroke-miterlimit="10"/>
<path d="M181.158 226.369L234.215 166.648C234.215 166.648 309.916 239.257 356.5 284.5" stroke="#014F42" stroke-width="3.77313" stroke-miterlimit="10"/>
<path d="M226.452 266.647L147.039 196.018L93.8875 248.642" stroke="#014F42" stroke-width="3.77313" stroke-miterlimit="10"/>
<path d="M198.109 208.031L234.215 166.648L276.257 208.031H198.109Z" stroke="#014F42" stroke-width="3.77313" stroke-miterlimit="10"/>
<path d="M101.75 156.001L141.629 114.618L183.671 156.001H101.423" stroke="#014F42" stroke-width="3.77313" stroke-miterlimit="10"/>
<g clip-path="url(#clip1_4907_26724)">
<path d="M308.774 570.735C313.902 570.735 318.98 571.754 323.718 573.733C328.456 575.713 332.761 578.614 336.388 582.272C340.014 585.93 342.89 590.272 344.853 595.051C346.815 599.83 347.826 604.952 347.826 610.125V672.483C347.826 675.972 346.452 679.318 344.006 681.785C341.56 684.252 338.243 685.638 334.784 685.638H282.763C279.305 685.638 275.988 684.252 273.542 681.785C271.096 679.318 269.722 675.972 269.722 672.483V610.125C269.722 599.678 273.837 589.659 281.16 582.272C288.484 574.885 298.417 570.735 308.774 570.735Z" fill="#014F42" stroke="#FFF0D8" stroke-width="3.84819" stroke-miterlimit="10"/>
<path d="M253.32 586.72C262.922 586.72 272.131 590.568 278.921 597.416C285.71 604.265 289.525 613.553 289.525 623.238V674.531C289.525 682.628 286.336 690.393 280.66 696.118C274.984 701.843 267.286 705.059 259.259 705.059H247.382C243.407 705.059 239.472 704.27 235.8 702.736C232.128 701.201 228.791 698.953 225.981 696.118C223.17 693.283 220.941 689.918 219.42 686.214C217.899 682.51 217.116 678.54 217.116 674.531V623.238C217.116 613.553 220.93 604.265 227.72 597.416C234.51 590.568 243.718 586.72 253.32 586.72Z" fill="#014F42" stroke="#FFF0D8" stroke-width="3.84819" stroke-miterlimit="10"/>
<path d="M253.32 671.514V652.888L273.816 638.874" fill="#014F42"/>
<path d="M253.32 671.514V652.888L273.816 638.874" stroke="#FFF0D8" stroke-width="3.84819" stroke-miterlimit="10"/>
<path d="M253.32 671.514V652.888L232.82 638.874" fill="#014F42"/>
<path d="M253.32 671.514V652.888L232.82 638.874" stroke="#FFF0D8" stroke-width="3.84819" stroke-miterlimit="10"/>
<path d="M253.32 690.917V672.297L273.816 658.277" fill="#014F42"/>
<path d="M253.32 690.917V672.297L273.816 658.277" stroke="#FFF0D8" stroke-width="3.84819" stroke-miterlimit="10"/>
<path d="M253.32 725.952V627.421" stroke="#FFF0D8" stroke-width="3.84819" stroke-miterlimit="10"/>
<path d="M132.32 578.855C141.922 578.855 151.131 582.702 157.921 589.551C164.71 596.399 168.525 605.688 168.525 615.373V669.438C168.525 676.802 165.625 683.864 160.462 689.071C155.3 694.278 148.299 697.203 140.998 697.203H123.625C116.324 697.203 109.323 694.278 104.16 689.071C98.9982 683.864 96.098 676.802 96.098 669.438V615.373C96.098 605.688 99.9124 596.399 106.702 589.551C113.492 582.702 122.7 578.855 132.302 578.855H132.32Z" fill="#014F42" stroke="#FFF0D8" stroke-width="3.84819" stroke-miterlimit="10"/>
<path d="M364.781 668.441V649.82L344.28 635.806" fill="#014F42"/>
<path d="M364.781 668.441V649.82L344.28 635.806" stroke="#FFF0D8" stroke-width="3.84819" stroke-miterlimit="10"/>
<path d="M364.781 687.85V669.224L344.28 655.209" fill="#014F42"/>
<path d="M364.781 687.85V669.224L344.28 655.209" stroke="#FFF0D8" stroke-width="3.84819" stroke-miterlimit="10"/>
<path d="M330.151 625.801C339.334 625.801 348.141 629.48 354.635 636.03C361.128 642.58 364.776 651.463 364.776 660.726V748.901H295.526V660.726C295.526 651.463 299.174 642.58 305.668 636.03C312.161 629.48 320.968 625.801 330.151 625.801Z" fill="#014F42" stroke="#FFF0D8" stroke-width="3.84819" stroke-miterlimit="10"/>
<path d="M291.749 650.062C301.936 650.066 311.703 654.152 318.903 661.421C326.103 668.689 330.146 678.544 330.142 688.819V768.396H253.32V688.819C253.318 683.729 254.311 678.687 256.242 673.984C258.173 669.281 261.003 665.007 264.572 661.408C268.141 657.808 272.378 654.954 277.041 653.007C281.704 651.06 286.702 650.059 291.749 650.062Z" fill="#014F42" stroke="#FFF0D8" stroke-width="3.84819" stroke-miterlimit="10"/>
<path d="M291.731 746.125V727.504L312.227 713.489" fill="#014F42"/>
<path d="M291.731 746.125V727.504L312.227 713.489" stroke="#FFF0D8" stroke-width="3.84819" stroke-miterlimit="10"/>
<path d="M291.731 746.125V727.504L271.235 713.489" fill="#014F42"/>
<path d="M291.731 746.125V727.504L271.235 713.489" stroke="#FFF0D8" stroke-width="3.84819" stroke-miterlimit="10"/>
<path d="M291.731 765.533V746.908L312.227 732.893" fill="#014F42"/>
<path d="M291.731 765.533V746.908L312.227 732.893" stroke="#FFF0D8" stroke-width="3.84819" stroke-miterlimit="10"/>
<path d="M291.731 765.533V746.908L271.235 732.893" fill="#014F42"/>
<path d="M291.731 765.533V746.908L271.235 732.893" stroke="#FFF0D8" stroke-width="3.84819" stroke-miterlimit="10"/>
<path d="M291.731 790.531V702.037" stroke="#FFF0D8" stroke-width="3.64692" stroke-miterlimit="10"/>
<path d="M396.792 749.124C420.942 749.124 440.519 729.377 440.519 705.018C440.519 680.659 420.942 660.913 396.792 660.913C372.643 660.913 353.066 680.659 353.066 705.018C353.066 729.377 372.643 749.124 396.792 749.124Z" fill="#014F42" stroke="#FFF0D8" stroke-width="3.84819" stroke-miterlimit="10"/>
<path d="M329.876 720.339L344.339 710.553" stroke="#FFF0D8" stroke-width="3.84819" stroke-miterlimit="10"/>
<path d="M330.142 702.237L344.605 692.451" stroke="#FFF0D8" stroke-width="3.84819" stroke-miterlimit="10"/>
<path d="M330.286 798.173V697.399" stroke="#FFF0D8" stroke-width="3.84819" stroke-miterlimit="10"/>
<path d="M217.4 625.769C226.927 625.769 236.063 629.586 242.799 636.381C249.536 643.176 253.32 652.391 253.32 662V753.453H181.48V662C181.48 652.391 185.265 643.176 192.001 636.381C198.737 629.586 207.873 625.769 217.4 625.769Z" fill="#014F42" stroke="#FFF0D8" stroke-width="3.84819" stroke-miterlimit="10"/>
<path d="M217.111 723.84L232.116 713.685" stroke="#FFF0D8" stroke-width="3.84819" stroke-miterlimit="10"/>
<path d="M217.391 705.06L232.391 694.905" stroke="#FFF0D8" stroke-width="3.84819" stroke-miterlimit="10"/>
<path d="M217.54 790.531V700.039" stroke="#FFF0D8" stroke-width="3.58033" stroke-miterlimit="10"/>
<path d="M84.9475 703.234H6.84416L6.84416 627.704C6.84416 617.257 10.9585 607.238 18.2821 599.851C25.6057 592.463 35.5387 588.313 45.8958 588.313C56.253 588.313 66.1859 592.463 73.5095 599.851C80.8331 607.238 84.9475 617.257 84.9475 627.704L84.9475 703.234Z" fill="#014F42" stroke="#FFF0D8" stroke-width="3.84819" stroke-miterlimit="10"/>
<path d="M45.8957 686.02V667.394L25.3997 653.379" fill="#014F42"/>
<path d="M45.8957 686.02V667.394L25.3997 653.379" stroke="#FFF0D8" stroke-width="3.84819" stroke-miterlimit="10"/>
<path d="M45.8958 686.02V667.394L66.3918 653.379" fill="#014F42"/>
<path d="M45.8958 686.02V667.394L66.3918 653.379" stroke="#FFF0D8" stroke-width="3.84819" stroke-miterlimit="10"/>
<path d="M45.8958 740.458V639.675" stroke="#FFF0D8" stroke-width="3.84819" stroke-miterlimit="10"/>
<path d="M45.8822 766.179C70.0318 766.179 89.6089 746.433 89.6089 722.074C89.6089 697.715 70.0318 677.968 45.8822 677.968C21.7326 677.968 2.15552 697.715 2.15552 722.074C2.15552 746.433 21.7326 766.179 45.8822 766.179Z" fill="#014F42" stroke="#FFF0D8" stroke-width="3.84819" stroke-miterlimit="10"/>
<path d="M45.8777 753.434V736.502L27.2408 723.753" fill="#014F42"/>
<path d="M45.8777 753.434V736.502L27.2408 723.753" stroke="#FFF0D8" stroke-width="3.84819" stroke-miterlimit="10"/>
<path d="M45.8777 753.434V736.502L64.5191 723.753" fill="#014F42"/>
<path d="M45.8777 753.434V736.502L64.5191 723.753" stroke="#FFF0D8" stroke-width="3.84819" stroke-miterlimit="10"/>
<path d="M45.8824 790.531V713.339" stroke="#FFF0D8" stroke-width="4.02821" stroke-miterlimit="10"/>
<path d="M132.063 630.498C132.063 616.21 120.58 604.626 106.414 604.626C92.2481 604.626 80.7645 616.21 80.7645 630.498V728.082C80.7645 742.37 92.2481 753.954 106.414 753.954C120.58 753.954 132.063 742.37 132.063 728.082V630.498Z" fill="#014F42" stroke="#FFF0D8" stroke-width="3.84819" stroke-miterlimit="10"/>
<path d="M106.071 714.272L120.534 704.486" stroke="#FFF0D8" stroke-width="3.84819" stroke-miterlimit="10"/>
<path d="M106.355 714.272L91.897 704.486" stroke="#FFF0D8" stroke-width="3.84819" stroke-miterlimit="10"/>
<path d="M106.337 696.166L120.8 686.379" stroke="#FFF0D8" stroke-width="3.84819" stroke-miterlimit="10"/>
<path d="M106.621 696.166L92.1631 686.379" stroke="#FFF0D8" stroke-width="3.84819" stroke-miterlimit="10"/>
<path d="M106.482 790.531V672.388" stroke="#FFF0D8" stroke-width="3.68974" stroke-miterlimit="10"/>
<path d="M217.112 767.731H132.316V687.881C132.316 676.534 136.785 665.651 144.74 657.627C152.695 649.603 163.484 645.095 174.734 645.095C185.984 645.095 196.773 649.603 204.728 657.627C212.683 665.651 217.152 676.534 217.152 687.881V767.731H217.112Z" fill="#FFF0D8" stroke="#014F42" stroke-width="5.09257" stroke-miterlimit="10"/>
<path d="M173.971 733.958V716.734L155.014 703.771" fill="#FFF0D8"/>
<path d="M173.971 733.958V716.734L155.014 703.771" stroke="#014F42" stroke-width="3.84819" stroke-miterlimit="10"/>
<path d="M173.971 733.958V716.734L192.929 703.771" fill="#FFF0D8"/>
<path d="M173.971 733.958V716.734L192.929 703.771" stroke="#014F42" stroke-width="3.84819" stroke-miterlimit="10"/>
<path d="M173.971 751.906V734.682L155.014 721.719" fill="#FFF0D8"/>
<path d="M173.971 751.906V734.682L155.014 721.719" stroke="#014F42" stroke-width="3.84819" stroke-miterlimit="10"/>
<path d="M173.971 751.906V734.682L192.929 721.719" fill="#FFF0D8"/>
<path d="M173.971 751.906V734.682L192.929 721.719" stroke="#014F42" stroke-width="3.84819" stroke-miterlimit="10"/>
<path d="M173.971 785.77L173.971 693.371" stroke="#014F42" stroke-width="3.84819" stroke-miterlimit="10"/>
<path d="M173.971 681.992L173.971 790.777" stroke="#014F42" stroke-width="3.84819" stroke-miterlimit="10"/>
</g>
<path d="M179.96 298.67C147.218 298.67 120.578 325.397 120.578 358.247V448.009H239.349V358.247C239.349 325.397 212.709 298.67 179.96 298.67ZM235.734 444.388H124.186V420.175H235.74V444.388H235.734ZM124.186 416.554V358.247C124.186 327.394 149.208 302.29 179.96 302.29C210.713 302.29 235.734 327.394 235.734 358.247V416.554H124.186Z" fill="#D14E1D"/>
<path d="M210.509 335.36H208.606C203.132 324.781 192.093 318.009 180.187 318.009C168.28 318.009 157.242 324.787 151.767 335.36H149.87C140.812 335.36 133.447 342.77 133.447 351.876C133.447 360.982 140.818 368.385 149.87 368.385H153.867V398.421H206.512V369.438V368.325L210.503 368.385C219.561 368.385 226.926 360.976 226.926 351.876C226.926 342.776 219.555 335.366 210.503 335.366L210.509 335.36ZM157.259 395.017V391.096H203.12V395.017H157.259ZM210.533 364.981L206.518 364.921C206.536 362.184 208.756 359.971 211.478 359.971H212.639V356.561H211.478C206.901 356.561 203.18 360.278 203.132 364.873H203.12V387.691H181.886V366.575L192.919 359.057L191.016 356.236L181.886 362.455V355.46L192.919 347.942L191.016 345.122L181.886 351.341V339.973H178.493V351.341L169.363 345.122L167.461 347.942L178.493 355.46V362.455L169.363 356.236L167.461 359.057L178.493 366.575V387.691H157.259V364.963C157.259 360.332 153.514 356.567 148.907 356.567H147.746V359.977H148.907C151.641 359.977 153.873 362.215 153.873 364.969V364.993H149.876C142.691 364.993 136.839 359.117 136.839 351.888C136.839 344.659 142.685 338.782 149.876 338.782H153.891L154.352 337.814C159.084 327.86 169.226 321.431 180.193 321.431C191.16 321.431 201.301 327.86 206.033 337.814L206.494 338.782H210.509C217.694 338.782 223.546 344.665 223.546 351.888C223.546 359.111 217.7 364.993 210.533 364.993V364.981Z" fill="#D14E1D"/>
<path d="M141.677 439.484C141.119 439.167 140.674 438.733 140.35 438.187C140.026 437.642 139.858 437.044 139.858 436.398V432.404L142.085 431.858V436.398C142.085 436.785 142.223 437.114 142.499 437.39C142.776 437.665 143.112 437.8 143.502 437.8H145.189C145.573 437.8 145.903 437.665 146.179 437.39C146.456 437.114 146.594 436.785 146.594 436.398V429.107L148.821 428.561V436.398C148.821 437.049 148.659 437.642 148.329 438.187C147.998 438.733 147.56 439.161 147.014 439.484C146.468 439.806 145.855 439.965 145.189 439.965H143.502C142.836 439.965 142.229 439.806 141.671 439.484H141.677ZM142.614 428.245H144.523V429.993H142.614V428.245Z" fill="#D14E1D"/>
<path d="M203.739 430.186C203.409 429.641 202.971 429.207 202.412 428.89C201.854 428.573 201.248 428.409 200.593 428.409H196.967V431.975C196.967 432.351 196.823 432.673 196.541 432.949C196.259 433.225 195.923 433.36 195.532 433.36H154.11C153.72 433.36 153.377 433.225 153.095 432.955C152.813 432.685 152.675 432.362 152.675 431.975V424.385L150.466 424.93V431.975C150.466 432.615 150.628 433.207 150.952 433.747C151.282 434.292 151.721 434.726 152.279 435.043C152.837 435.366 153.449 435.524 154.11 435.524H195.532C196.025 435.524 196.487 435.424 196.925 435.237C197.357 435.043 197.736 434.773 198.066 434.433C198.378 434.773 198.756 435.043 199.194 435.237C199.633 435.424 200.101 435.524 200.593 435.524C201.248 435.524 201.854 435.366 202.412 435.043C202.971 434.726 203.409 434.292 203.739 433.747C204.063 433.207 204.225 432.615 204.225 431.975C204.225 431.336 204.063 430.732 203.739 430.186ZM201.602 432.949C201.326 433.225 200.989 433.36 200.593 433.36C200.197 433.36 199.867 433.225 199.591 432.955C199.315 432.685 199.176 432.362 199.176 431.975V430.573H200.593C200.989 430.573 201.326 430.708 201.602 430.984C201.878 431.26 202.016 431.588 202.016 431.975C202.016 432.362 201.878 432.673 201.602 432.949Z" fill="#D14E1D"/>
<path d="M204.544 437.701L206.098 436.692V429.119L208.314 428.573V437.847L205.78 439.496L204.55 437.695L204.544 437.701Z" fill="#D14E1D"/>
<path d="M210.607 437.718L213.987 435.524H213.008C212.492 435.524 211.97 435.366 211.447 435.055C210.925 434.744 210.493 434.316 210.145 433.776C209.803 433.236 209.628 432.644 209.628 431.993C209.628 431.342 209.791 430.761 210.121 430.21C210.451 429.658 210.889 429.224 211.447 428.907C212.006 428.591 212.612 428.426 213.26 428.426H216.91V436.216L211.826 439.519L210.607 437.718ZM212.252 432.949C212.528 433.225 212.864 433.36 213.254 433.36H214.689V430.573H213.254C212.87 430.573 212.54 430.708 212.258 430.978C211.976 431.248 211.838 431.576 211.838 431.958C211.838 432.339 211.976 432.673 212.252 432.949Z" fill="#D14E1D"/>
<path d="M218.543 424.93L220.771 424.385V435.524H218.543V424.93Z" fill="#D14E1D"/>
<path d="M152.761 407.216C152.761 405.936 151.697 404.896 150.389 404.896H147.73V410.967H148.728V409.536H150.389C150.55 409.536 150.717 409.518 150.903 409.471L151.996 410.991L152.791 410.476L151.799 409.08C152.408 408.641 152.767 407.952 152.767 407.216H152.761ZM151.763 407.216C151.763 407.958 151.148 408.56 150.389 408.56H148.728V405.871H150.389C151.148 405.871 151.763 406.473 151.763 407.216Z" fill="#D14E1D"/>
<path d="M163.026 404.644C161.514 404.644 160.277 405.848 160.277 407.332V410.996H161.275V409.541H164.77V410.996H165.768V407.332C165.768 405.854 164.537 404.644 163.02 404.644H163.026ZM164.776 407.332V408.571H161.281V407.332C161.281 406.391 162.064 405.62 163.032 405.62C164 405.62 164.782 406.386 164.782 407.332H164.776Z" fill="#D14E1D"/>
<path d="M156.579 407.181L154.81 404.942L154.792 404.907H153.776V410.967H154.774V406.859L156.549 409.115L158.359 406.964V410.967H159.357V404.907H158.461L156.579 407.181Z" fill="#D14E1D"/>
<path d="M171.97 404.726V410.915L171.074 410.891L171.056 410.868L167.686 406.532V410.909H166.694V404.849H167.638L167.656 404.872L170.972 409.15V404.972L171.97 404.726Z" fill="#D14E1D"/>
<path d="M143.637 404.673C141.862 404.673 140.422 406.088 140.422 407.817C140.422 409.547 141.868 410.961 143.637 410.961C145.405 410.961 146.851 409.547 146.851 407.817C146.851 406.088 145.405 404.673 143.637 404.673ZM145.824 408.197C145.668 409.056 144.999 409.74 144.145 409.933C144.145 409.933 144.139 409.933 144.133 409.933C144.061 409.95 143.989 409.962 143.918 409.968C143.906 409.968 143.9 409.968 143.888 409.968C143.81 409.974 143.727 409.98 143.643 409.98C143.559 409.98 143.482 409.98 143.398 409.968C143.386 409.968 143.38 409.968 143.368 409.968C143.296 409.956 143.225 409.945 143.153 409.933C143.153 409.933 143.147 409.933 143.141 409.933C142.281 409.74 141.617 409.056 141.456 408.203C141.456 408.203 141.456 408.15 141.444 408.127C141.444 408.092 141.432 408.057 141.432 408.016C141.432 407.958 141.426 407.893 141.42 407.835C141.42 407.829 141.42 407.823 141.42 407.817C141.42 406.619 142.412 405.649 143.637 405.649C143.637 405.649 143.667 405.649 143.679 405.649C144.886 405.673 145.86 406.631 145.86 407.817C145.86 407.823 145.86 407.829 145.86 407.841C145.86 407.899 145.86 407.958 145.848 408.022C145.848 408.057 145.836 408.092 145.836 408.133C145.836 408.156 145.836 408.18 145.824 408.203V408.197Z" fill="#D14E1D"/>
<path d="M175.269 404.574H177.682C178.423 404.574 179.009 404.744 179.427 405.077C179.851 405.416 180.06 405.883 180.06 406.479C180.06 406.923 179.953 407.297 179.738 407.607C179.523 407.917 179.206 408.145 178.8 408.291L180.305 410.956V411.02H179.134L177.76 408.566H176.374V411.02H175.269V404.574ZM177.772 407.712C178.143 407.712 178.435 407.607 178.65 407.403C178.865 407.198 178.973 406.923 178.973 406.573C178.973 406.211 178.86 405.924 178.632 405.72C178.405 405.515 178.083 405.41 177.67 405.41H176.38V407.712H177.772Z" fill="#D14E1D"/>
<path d="M181.004 408.589C181.004 408.121 181.094 407.7 181.279 407.332C181.464 406.964 181.721 406.666 182.062 406.456C182.402 406.245 182.803 406.14 183.263 406.14C183.902 406.14 184.41 406.345 184.786 406.748C185.163 407.157 185.354 407.706 185.354 408.402V408.782H182.062V408.916C182.074 409.179 182.145 409.413 182.277 409.623C182.408 409.833 182.582 410.003 182.791 410.126C183.006 410.248 183.239 410.307 183.49 410.307C184.016 410.307 184.434 410.12 184.745 409.752L185.199 410.289C185.013 410.546 184.763 410.745 184.44 410.891C184.123 411.037 183.771 411.107 183.394 411.107C182.94 411.107 182.534 411.008 182.169 410.815C181.805 410.617 181.518 410.342 181.309 409.98C181.1 409.617 180.998 409.202 180.998 408.741V408.595L181.004 408.589ZM184.332 408.191V408.098C184.332 407.771 184.231 407.502 184.034 407.286C183.836 407.069 183.579 406.964 183.263 406.964C182.946 406.964 182.689 407.075 182.468 407.291C182.247 407.508 182.116 407.811 182.062 408.191H184.332Z" fill="#D14E1D"/>
<path d="M186.914 410.92C186.603 410.798 186.352 410.622 186.167 410.394C185.982 410.167 185.886 409.904 185.886 409.606H186.836C186.842 409.863 186.944 410.056 187.147 410.19C187.35 410.324 187.613 410.389 187.942 410.389C188.228 410.389 188.455 410.324 188.635 410.202C188.814 410.079 188.898 409.927 188.898 409.74C188.898 409.541 188.796 409.378 188.599 409.249C188.402 409.121 188.109 409.021 187.727 408.939C187.153 408.811 186.729 408.635 186.46 408.413C186.191 408.191 186.054 407.893 186.054 407.531C186.054 407.262 186.131 407.023 186.293 406.812C186.454 406.602 186.669 406.432 186.95 406.31C187.231 406.187 187.559 406.128 187.93 406.128C188.533 406.128 189.011 406.263 189.382 406.532C189.746 406.8 189.931 407.163 189.931 407.619H188.892C188.892 407.379 188.802 407.192 188.629 407.052C188.449 406.912 188.216 406.836 187.918 406.836C187.655 406.836 187.446 406.894 187.278 407.017C187.117 407.139 187.033 407.297 187.033 407.49C187.033 407.654 187.105 407.788 187.243 407.887C187.38 407.993 187.547 408.069 187.738 408.127C187.93 408.185 188.199 408.25 188.545 408.332C188.999 408.437 189.34 408.595 189.579 408.817C189.812 409.039 189.931 409.331 189.931 409.693C189.931 409.968 189.848 410.207 189.68 410.418C189.513 410.628 189.28 410.798 188.975 410.915C188.671 411.031 188.324 411.09 187.936 411.09C187.571 411.09 187.231 411.026 186.92 410.903L186.914 410.92Z" fill="#D14E1D"/>
<path d="M193.116 406.97H192.195V409.606C192.195 409.851 192.237 410.021 192.321 410.126C192.405 410.231 192.554 410.278 192.769 410.278C192.877 410.278 193.014 410.266 193.187 410.243L193.205 411.008C192.99 411.073 192.745 411.108 192.482 411.108C192.016 411.108 191.676 410.997 191.461 410.769C191.245 410.547 191.132 410.202 191.126 409.735V406.97H190.409V406.222H191.126V404.983H192.195V406.222H193.116V406.97Z" fill="#D14E1D"/>
<path d="M194.466 410.926C194.227 410.804 194.036 410.64 193.892 410.424C193.755 410.213 193.683 409.974 193.683 409.717C193.683 409.226 193.88 408.846 194.275 408.577C194.669 408.308 195.225 408.18 195.942 408.18H196.694V407.741C196.694 407.461 196.617 407.25 196.455 407.104C196.3 406.958 196.067 406.888 195.774 406.888C195.482 406.888 195.26 406.958 195.087 407.099C194.914 407.239 194.824 407.42 194.824 407.642L193.803 407.63C193.803 407.344 193.892 407.087 194.066 406.859C194.239 406.631 194.478 406.45 194.788 406.321C195.093 406.193 195.44 406.128 195.822 406.128C196.414 406.128 196.88 406.269 197.226 406.555C197.573 406.841 197.752 407.233 197.758 407.73V409.909C197.758 410.377 197.818 410.722 197.943 410.944V411.008H196.868C196.808 410.85 196.76 410.652 196.736 410.418C196.396 410.874 195.912 411.102 195.284 411.102C194.98 411.102 194.711 411.043 194.466 410.92V410.926ZM194.956 410.149C195.105 410.278 195.302 410.342 195.535 410.342C195.816 410.342 196.055 410.283 196.252 410.167C196.45 410.05 196.599 409.886 196.7 409.682V408.782H196.001C195.637 408.782 195.332 408.852 195.093 408.998C194.854 409.138 194.729 409.36 194.729 409.646C194.729 409.851 194.806 410.02 194.956 410.149Z" fill="#D14E1D"/>
<path d="M201.941 410.424C201.6 410.88 201.116 411.108 200.489 411.108C199.951 411.108 199.545 410.956 199.27 410.646C198.995 410.336 198.864 409.898 198.864 409.314V406.222H199.921V409.314C199.921 409.629 199.993 409.869 200.142 410.032C200.292 410.196 200.513 410.278 200.8 410.278C201.056 410.278 201.272 410.225 201.457 410.126C201.642 410.021 201.785 409.869 201.887 409.67V406.222H202.957V411.014H201.953L201.935 410.424H201.941Z" fill="#D14E1D"/>
<path d="M204.068 406.228H205.06L205.089 406.982C205.37 406.421 205.795 406.134 206.362 406.134C206.511 406.134 206.643 406.152 206.75 406.187L206.721 407.151C206.631 407.122 206.5 407.104 206.32 407.104C206.022 407.104 205.771 407.18 205.555 407.338C205.346 407.49 205.197 407.718 205.107 408.004V411.014H204.056V406.222L204.068 406.228Z" fill="#D14E1D"/>
<path d="M207.898 410.926C207.659 410.804 207.468 410.64 207.324 410.424C207.187 410.213 207.115 409.974 207.115 409.717C207.115 409.226 207.312 408.846 207.707 408.577C208.101 408.308 208.657 408.18 209.374 408.18H210.126V407.741C210.126 407.461 210.049 407.25 209.887 407.104C209.732 406.958 209.499 406.888 209.206 406.888C208.913 406.888 208.692 406.958 208.519 407.099C208.346 407.239 208.256 407.42 208.256 407.642L207.234 407.63C207.234 407.344 207.324 407.087 207.497 406.859C207.671 406.631 207.91 406.45 208.22 406.321C208.525 406.193 208.872 406.128 209.254 406.128C209.846 406.128 210.312 406.269 210.658 406.555C211.005 406.841 211.184 407.233 211.19 407.73V409.909C211.19 410.377 211.25 410.722 211.375 410.944V411.008H210.3C210.24 410.85 210.192 410.652 210.168 410.418C209.828 410.874 209.344 411.102 208.716 411.102C208.412 411.102 208.143 411.043 207.898 410.92V410.926ZM208.388 410.149C208.537 410.278 208.734 410.342 208.967 410.342C209.248 410.342 209.487 410.283 209.684 410.167C209.881 410.05 210.031 409.886 210.132 409.682V408.782H209.433C209.069 408.782 208.764 408.852 208.525 408.998C208.286 409.138 208.161 409.36 208.161 409.646C208.161 409.851 208.238 410.02 208.388 410.149Z" fill="#D14E1D"/>
<path d="M212.295 411.02V406.228H213.287L213.323 406.982C213.496 406.707 213.711 406.502 213.962 406.356C214.213 406.21 214.494 406.14 214.805 406.14C215.331 406.14 215.725 406.292 215.988 406.59C216.251 406.888 216.388 407.344 216.394 407.958V411.02H215.325V407.963C215.325 407.619 215.253 407.362 215.109 407.198C214.966 407.034 214.739 406.952 214.422 406.952C214.183 406.952 213.968 407.023 213.783 407.169C213.598 407.309 213.454 407.508 213.353 407.753V411.014H212.295V411.02Z" fill="#D14E1D"/>
<path d="M219.74 406.97H218.82V409.606C218.82 409.851 218.862 410.021 218.945 410.126C219.029 410.231 219.178 410.278 219.393 410.278C219.501 410.278 219.638 410.266 219.812 410.243L219.829 411.008C219.614 411.073 219.369 411.108 219.107 411.108C218.64 411.108 218.3 410.997 218.085 410.769C217.87 410.547 217.756 410.202 217.75 409.735V406.97H217.033V406.222H217.75V404.983H218.82V406.222H219.74V406.97Z" fill="#D14E1D"/>
</g>
<defs>
<filter id="filter0_b_4907_26724" x="-112" y="-112" width="584" height="1024" filterUnits="userSpaceOnUse" color-interpolation-filters="sRGB">
<feFlood flood-opacity="0" result="BackgroundImageFix"/>
<feGaussianBlur in="BackgroundImageFix" stdDeviation="56"/>
<feComposite in2="SourceAlpha" operator="in" result="effect1_backgroundBlur_4907_26724"/>
<feBlend mode="normal" in="SourceGraphic" in2="effect1_backgroundBlur_4907_26724" result="shape"/>
</filter>
<filter id="filter1_f_4907_26724" x="-494" y="-407" width="1174" height="1174" filterUnits="userSpaceOnUse" color-interpolation-filters="sRGB">
<feFlood flood-opacity="0" result="BackgroundImageFix"/>
<feBlend mode="normal" in="SourceGraphic" in2="BackgroundImageFix" result="shape"/>
<feGaussianBlur stdDeviation="242" result="effect1_foregroundBlur_4907_26724"/>
</filter>
<filter id="filter2_f_4907_26724" x="-354" y="266" width="1067" height="1067" filterUnits="userSpaceOnUse" color-interpolation-filters="sRGB">
<feFlood flood-opacity="0" result="BackgroundImageFix"/>
<feBlend mode="normal" in="SourceGraphic" in2="BackgroundImageFix" result="shape"/>
<feGaussianBlur stdDeviation="126" result="effect1_foregroundBlur_4907_26724"/>
</filter>
<clipPath id="clip0_4907_26724">
<rect width="360" height="800" fill="white"/>
</clipPath>
<clipPath id="clip1_4907_26724">
<rect width="346" height="239" fill="white" transform="translate(7 552)"/>
</clipPath>
</defs>
</svg>
